<svg xmlns="http://www.w3.org/2000/svg" xmlns:xlink="http://www.w3.org/1999/xlink" width="500" zoomAndPan="magnify" viewBox="0 0 375 374.999991" height="500" preserveAspectRatio="xMidYMid meet" version="1.0"><defs><clipPath id="d3e559a656"><path d="M 146 81.09375 L 236 81.09375 L 236 89 L 146 89 Z M 146 81.09375 " clip-rule="nonzero"/></clipPath></defs><path fill="#d12d3d" d="M 0.21875 363.273438 L 121.949219 363.273438 L 121.949219 274.464844 L 0.21875 274.464844 Z M 0.21875 363.273438 " fill-opacity="1" fill-rule="nonzero"/><path fill="#f1485b" d="M 121.949219 255.539062 L 43.878906 255.539062 L 0.21875 274.464844 L 121.949219 274.464844 L 121.949219 255.539062 " fill-opacity="1" fill-rule="nonzero"/><path fill="#d12d3d" d="M 253.144531 363.273438 L 374.871094 363.273438 L 374.871094 296.472656 L 253.144531 296.472656 Z M 253.144531 363.273438 " fill-opacity="1" fill-rule="nonzero"/><path fill="#f1485b" d="M 253.144531 277.546875 L 331.210938 277.546875 L 374.871094 296.472656 L 253.144531 296.472656 L 253.144531 277.546875 " fill-opacity="1" fill-rule="nonzero"/><path fill="#9d212c" d="M 121.949219 375.144531 L 253.261719 375.144531 L 253.261719 251.550781 L 121.949219 251.550781 Z M 121.949219 375.144531 " fill-opacity="1" fill-rule="nonzero"/><path fill="#f1485b" d="M 121.949219 251.550781 L 253.261719 251.550781 L 231.265625 238.613281 L 144.585938 238.613281 L 121.949219 251.550781 " fill-opacity="1" fill-rule="nonzero"/><path fill="#510f12" d="M 200.609375 349.65625 L 185.09375 349.65625 L 185.09375 316.3125 C 185.09375 311.5 184.976562 308.601562 184.75 307.628906 C 184.519531 306.65625 183.886719 305.921875 182.847656 305.421875 C 181.8125 304.921875 179.5 304.671875 175.914062 304.671875 L 174.378906 304.671875 L 174.378906 297.421875 C 181.878906 295.804688 187.578125 292.488281 191.46875 287.460938 L 200.609375 287.460938 L 200.609375 349.65625 " fill-opacity="1" fill-rule="nonzero"/><path fill="#ffffff" d="M 196.402344 285.851562 L 196.402344 348.046875 L 180.890625 348.046875 L 180.890625 314.699219 C 180.890625 309.882812 180.773438 306.992188 180.546875 306.015625 C 180.3125 305.046875 179.675781 304.308594 178.644531 303.808594 C 177.605469 303.308594 175.296875 303.058594 171.710938 303.058594 L 170.175781 303.058594 L 170.175781 295.808594 C 177.675781 294.195312 183.375 290.875 187.265625 285.851562 L 196.402344 285.851562 " fill-opacity="1" fill-rule="nonzero"/><path fill="#661419" d="M 76.78125 343.632812 L 51.054688 343.632812 L 51.0625 336.945312 C 58.679688 324.476562 63.210938 316.765625 64.648438 313.804688 C 66.082031 310.839844 66.804688 308.53125 66.804688 306.871094 C 66.804688 305.597656 66.582031 304.648438 66.152344 304.019531 C 65.714844 303.394531 65.054688 303.078125 64.164062 303.078125 C 63.277344 303.078125 62.617188 303.425781 62.183594 304.121094 C 61.746094 304.816406 61.527344 306.195312 61.527344 308.261719 L 61.527344 312.714844 L 51.054688 312.714844 L 51.054688 311.011719 C 51.054688 308.386719 51.191406 306.316406 51.460938 304.800781 C 51.730469 303.285156 52.398438 301.796875 53.457031 300.328125 C 54.519531 298.863281 55.894531 297.75 57.59375 297 C 59.292969 296.25 61.328125 295.871094 63.699219 295.871094 C 68.351562 295.871094 71.863281 297.023438 74.246094 299.328125 C 76.628906 301.636719 77.820312 304.554688 77.820312 308.085938 C 77.820312 310.765625 77.152344 313.605469 75.808594 316.59375 C 74.46875 319.585938 70.519531 325.9375 63.957031 335.644531 L 76.78125 335.644531 L 76.78125 343.632812 " fill-opacity="1" fill-rule="nonzero"/><path fill="#ffffff" d="M 73.21875 332.878906 L 73.21875 340.867188 L 47.496094 340.867188 L 47.503906 334.179688 C 55.121094 321.71875 59.652344 314 61.085938 311.039062 C 62.527344 308.074219 63.246094 305.765625 63.246094 304.105469 C 63.246094 302.835938 63.027344 301.882812 62.59375 301.253906 C 62.15625 300.628906 61.496094 300.316406 60.609375 300.316406 C 59.71875 300.316406 59.054688 300.664062 58.625 301.355469 C 58.1875 302.050781 57.972656 303.429688 57.972656 305.496094 L 57.972656 309.953125 L 47.496094 309.953125 L 47.496094 308.246094 C 47.496094 305.621094 47.632812 303.550781 47.902344 302.035156 C 48.171875 300.523438 48.835938 299.03125 49.898438 297.566406 C 50.960938 296.097656 52.339844 294.992188 54.039062 294.238281 C 55.730469 293.484375 57.765625 293.105469 60.140625 293.105469 C 64.789062 293.105469 68.304688 294.261719 70.6875 296.570312 C 73.070312 298.875 74.261719 301.792969 74.261719 305.324219 C 74.261719 308.007812 73.59375 310.84375 72.25 313.832031 C 70.910156 316.824219 66.957031 323.171875 60.402344 332.878906 L 73.21875 332.878906 " fill-opacity="1" fill-rule="nonzero"/><path fill="#661419" d="M 317.074219 357.480469 C 313.371094 357.480469 310.460938 356.855469 308.347656 355.613281 C 306.238281 354.367188 304.847656 352.84375 304.183594 351.039062 C 303.515625 349.234375 303.183594 346.105469 303.183594 341.644531 L 303.183594 337.941406 L 314.871094 337.941406 L 314.871094 345.554688 C 314.871094 347.578125 314.992188 348.867188 315.238281 349.417969 C 315.476562 349.96875 316.011719 350.246094 316.84375 350.246094 C 317.75 350.246094 318.34375 349.894531 318.636719 349.203125 C 318.925781 348.503906 319.070312 346.691406 319.070312 343.761719 L 319.070312 340.519531 C 319.070312 338.722656 318.867188 337.410156 318.460938 336.578125 C 318.054688 335.753906 317.457031 335.207031 316.667969 334.945312 C 315.878906 334.683594 314.34375 334.535156 312.066406 334.5 L 312.066406 327.695312 C 314.847656 327.695312 316.5625 327.589844 317.21875 327.378906 C 317.875 327.164062 318.34375 326.703125 318.636719 325.988281 C 318.925781 325.273438 319.070312 324.15625 319.070312 322.632812 L 319.070312 320.027344 C 319.070312 318.382812 318.902344 317.304688 318.5625 316.785156 C 318.226562 316.261719 317.699219 316 316.988281 316 C 316.175781 316 315.625 316.277344 315.324219 316.828125 C 315.023438 317.375 314.871094 318.546875 314.871094 320.34375 L 314.871094 324.191406 L 303.183594 324.191406 L 303.183594 320.195312 C 303.183594 315.722656 304.207031 312.699219 306.253906 311.125 C 308.296875 309.550781 311.546875 308.765625 316.003906 308.765625 C 321.578125 308.765625 325.359375 309.855469 327.347656 312.035156 C 329.332031 314.214844 330.324219 317.238281 330.324219 321.113281 C 330.324219 323.738281 329.96875 325.632812 329.257812 326.796875 C 328.539062 327.964844 327.285156 329.03125 325.492188 329.996094 C 327.265625 330.59375 328.589844 331.574219 329.457031 332.9375 C 330.324219 334.296875 330.757812 337.484375 330.757812 342.507812 C 330.757812 346.234375 330.335938 349.121094 329.488281 351.179688 C 328.640625 353.234375 327.171875 354.800781 325.085938 355.871094 C 323.007812 356.945312 320.335938 357.480469 317.074219 357.480469 " fill-opacity="1" fill-rule="nonzero"/><path fill="#ffffff" d="M 319.835938 328.867188 C 321.609375 329.46875 322.929688 330.449219 323.796875 331.808594 C 324.667969 333.171875 325.097656 336.359375 325.097656 341.378906 C 325.097656 345.105469 324.675781 347.996094 323.828125 350.054688 C 322.980469 352.109375 321.511719 353.671875 319.429688 354.746094 C 317.34375 355.816406 314.671875 356.351562 311.414062 356.351562 C 307.710938 356.351562 304.800781 355.726562 302.691406 354.484375 C 300.578125 353.238281 299.1875 351.714844 298.523438 349.910156 C 297.859375 348.105469 297.523438 344.976562 297.523438 340.519531 L 297.523438 336.816406 L 309.214844 336.816406 L 309.214844 344.425781 C 309.214844 346.453125 309.335938 347.742188 309.578125 348.292969 C 309.816406 348.839844 310.351562 349.113281 311.179688 349.113281 C 312.085938 349.113281 312.6875 348.769531 312.976562 348.070312 C 313.265625 347.378906 313.410156 345.566406 313.410156 342.632812 L 313.410156 339.390625 C 313.410156 337.597656 313.207031 336.285156 312.804688 335.453125 C 312.398438 334.625 311.796875 334.078125 311.011719 333.820312 C 310.21875 333.558594 308.683594 333.410156 306.410156 333.367188 L 306.410156 326.566406 C 309.1875 326.566406 310.902344 326.460938 311.554688 326.25 C 312.210938 326.039062 312.6875 325.574219 312.976562 324.859375 C 313.265625 324.148438 313.410156 323.027344 313.410156 321.5 L 313.410156 318.898438 C 313.410156 317.257812 313.242188 316.179688 312.902344 315.65625 C 312.5625 315.136719 312.042969 314.875 311.324219 314.875 C 310.519531 314.875 309.964844 315.152344 309.660156 315.699219 C 309.367188 316.25 309.214844 317.421875 309.214844 319.214844 L 309.214844 323.066406 L 297.523438 323.066406 L 297.523438 319.070312 C 297.523438 314.597656 298.546875 311.570312 300.589844 309.996094 C 302.636719 308.425781 305.886719 307.640625 310.34375 307.640625 C 315.917969 307.640625 319.699219 308.726562 321.6875 310.90625 C 323.671875 313.085938 324.667969 316.113281 324.667969 319.988281 C 324.667969 322.613281 324.308594 324.507812 323.59375 325.671875 C 322.882812 326.839844 321.625 327.90625 319.835938 328.867188 " fill-opacity="1" fill-rule="nonzero"/><path fill="#e8981a" d="M 155.777344 88.589844 L 121.457031 88.183594 L 121.285156 91.441406 C 121.28125 91.492188 121.238281 92.3125 121.238281 93.734375 C 121.25 98.832031 121.742188 111.609375 126.722656 124.289062 C 129.222656 130.625 132.863281 136.953125 138.246094 142.171875 C 143.613281 147.390625 150.746094 151.425781 159.816406 153.09375 C 161.664062 153.4375 163.433594 152.21875 163.773438 150.375 C 164.113281 148.53125 162.898438 146.761719 161.050781 146.417969 C 153.253906 144.960938 147.480469 141.648438 142.96875 137.296875 C 139.59375 134.023438 136.957031 130.140625 134.902344 126 C 131.820312 119.796875 130.078125 113.03125 129.132812 107.160156 C 128.1875 101.292969 128.027344 96.328125 128.027344 93.734375 C 128.027344 93.089844 128.039062 92.59375 128.046875 92.265625 C 128.050781 92.097656 128.058594 91.976562 128.0625 91.898438 L 128.066406 91.8125 L 128.066406 91.796875 L 127.707031 91.78125 L 128.066406 91.796875 L 127.707031 91.78125 L 128.066406 91.796875 L 124.671875 91.621094 L 124.636719 95.015625 L 155.695312 95.386719 C 157.574219 95.40625 159.109375 93.90625 159.128906 92.03125 C 159.152344 90.152344 157.652344 88.613281 155.777344 88.589844 " fill-opacity="1" fill-rule="nonzero"/><path fill="#e8981a" d="M 219.398438 95.386719 L 250.460938 95.015625 L 250.417969 91.621094 L 247.03125 91.792969 L 247.316406 91.78125 L 247.03125 91.792969 L 247.316406 91.78125 L 247.03125 91.792969 C 247.03125 91.832031 247.066406 92.53125 247.066406 93.734375 C 247.074219 98.34375 246.539062 110.453125 242.050781 121.796875 C 239.8125 127.476562 236.617188 132.941406 232.125 137.296875 C 227.613281 141.648438 221.835938 144.960938 214.039062 146.417969 C 212.199219 146.761719 210.976562 148.53125 211.320312 150.375 C 211.660156 152.21875 213.433594 153.4375 215.277344 153.09375 C 224.347656 151.425781 231.480469 147.390625 236.847656 142.171875 C 240.878906 138.261719 243.941406 133.71875 246.273438 129.023438 C 249.761719 121.976562 251.636719 114.585938 252.664062 108.242188 C 253.6875 101.898438 253.851562 96.597656 253.851562 93.734375 C 253.851562 92.3125 253.816406 91.496094 253.8125 91.445312 L 253.640625 88.183594 L 219.320312 88.589844 C 217.445312 88.613281 215.9375 90.152344 215.964844 92.03125 C 215.984375 93.90625 217.523438 95.40625 219.398438 95.386719 " fill-opacity="1" fill-rule="nonzero"/><path fill="#f6cd1a" d="M 211.847656 227.398438 L 211.847656 222.007812 L 197.769531 215.796875 L 197.769531 176.847656 C 199.425781 163.589844 206.878906 161.101562 206.878906 161.101562 C 225.105469 156.132812 226.761719 142.046875 226.761719 142.046875 L 229.246094 84.867188 L 152.207031 84.867188 L 154.691406 142.046875 C 154.691406 142.046875 156.347656 156.132812 174.570312 161.101562 C 174.570312 161.101562 182.027344 163.589844 183.683594 176.847656 L 183.683594 215.796875 L 169.601562 222.007812 L 169.601562 227.398438 C 169.601562 227.398438 149.71875 229.054688 147.238281 242.3125 L 234.214844 242.3125 C 231.734375 229.054688 211.847656 227.398438 211.847656 227.398438 " fill-opacity="1" fill-rule="nonzero"/><path fill="#f8e13f" d="M 203.738281 142.195312 C 197.214844 142.195312 190.339844 140.640625 185.402344 136.597656 C 180.191406 132.34375 177.871094 125.839844 176.199219 119.550781 C 174.894531 114.65625 175.382812 109.140625 176.472656 104.261719 C 177.253906 100.75 178.65625 96.921875 180.90625 93.914062 L 219.335938 93.914062 L 217.589844 134.027344 C 217.589844 134.027344 217.203125 137.363281 214.367188 140.839844 C 212.660156 141.269531 210.9375 141.601562 209.191406 141.835938 C 207.4375 142.066406 205.601562 142.195312 203.738281 142.195312 " fill-opacity="1" fill-rule="nonzero"/><path fill="#f6cd1a" d="M 233.617188 239.992188 L 233.550781 239.953125 C 233.496094 239.804688 233.4375 239.660156 233.375 239.511719 C 233.46875 239.683594 233.546875 239.84375 233.617188 239.992188 " fill-opacity="1" fill-rule="nonzero"/><path fill="#ec4722" d="M 234.214844 242.3125 C 234.058594 241.480469 233.835938 240.699219 233.550781 239.953125 L 233.617188 239.992188 C 234.214844 241.261719 234.101562 241.699219 234.214844 242.3125 " fill-opacity="1" fill-rule="nonzero"/><path fill="#f6cd1a" d="M 201.183594 166.34375 C 203.816406 162.125 206.878906 161.101562 206.878906 161.101562 C 206.890625 161.097656 206.910156 161.09375 206.925781 161.089844 C 206.910156 161.09375 206.894531 161.097656 206.878906 161.101562 C 206.878906 161.101562 203.824219 162.128906 201.191406 166.34375 C 201.1875 166.34375 201.1875 166.34375 201.183594 166.34375 M 206.949219 161.085938 C 206.957031 161.085938 206.964844 161.082031 206.96875 161.082031 C 206.960938 161.085938 206.957031 161.085938 206.949219 161.085938 " fill-opacity="1" fill-rule="nonzero"/><path fill="#eeae10" d="M 234.214844 242.3125 L 147.238281 242.3125 C 149.71875 229.054688 169.601562 227.398438 169.601562 227.398438 L 169.601562 222.007812 L 183.683594 215.796875 L 183.683594 176.847656 C 182.027344 163.589844 174.570312 161.101562 174.570312 161.101562 C 167.929688 159.289062 163.480469 156.265625 160.523438 153.152344 C 157.675781 150.164062 156.195312 147.097656 155.441406 144.949219 C 154.824219 143.191406 154.691406 142.046875 154.691406 142.046875 L 152.207031 84.867188 L 173.28125 84.867188 C 168.066406 92.226562 166.125 102.886719 165.914062 110.976562 C 165.722656 118.476562 167.632812 125.746094 170.550781 132.617188 C 174.019531 140.796875 179.863281 147.554688 188.167969 150.988281 C 194.058594 153.417969 200.539062 154.476562 207.011719 154.476562 C 211.835938 154.476562 216.648438 153.890625 221.214844 152.847656 C 218.265625 156.050781 213.78125 159.203125 206.96875 161.082031 C 206.964844 161.082031 206.957031 161.085938 206.949219 161.085938 C 206.941406 161.085938 206.933594 161.089844 206.925781 161.089844 C 206.910156 161.09375 206.890625 161.097656 206.878906 161.101562 C 206.878906 161.101562 203.816406 162.125 201.183594 166.34375 C 197.050781 167.890625 193.414062 170.421875 190.984375 174.460938 C 187.152344 180.820312 187.335938 189.011719 187.960938 196.140625 C 188.695312 204.492188 190.777344 214.363281 186.871094 222.234375 C 184.96875 226.070312 181.828125 227.828125 177.988281 228.539062 C 174.4375 229.195312 173.191406 230.433594 173.328125 234.441406 C 173.476562 238.726562 179.679688 237.753906 184.925781 238.03125 L 232.421875 237.890625 C 232.832031 238.535156 233.144531 239.066406 233.375 239.511719 C 233.4375 239.660156 233.496094 239.804688 233.550781 239.953125 C 233.835938 240.699219 234.058594 241.480469 234.214844 242.3125 " fill-opacity="1" fill-rule="nonzero"/><g clip-path="url(#d3e559a656)"><path fill="#dc9f1a" d="M 235.308594 84.660156 C 235.308594 86.605469 233.773438 88.179688 231.878906 88.179688 L 149.574219 88.179688 C 147.679688 88.179688 146.144531 86.605469 146.144531 84.660156 C 146.144531 82.714844 147.679688 81.136719 149.574219 81.136719 L 231.878906 81.136719 C 233.773438 81.136719 235.308594 82.714844 235.308594 84.660156 " fill-opacity="1" fill-rule="nonzero"/></g><path fill="#ffffff" d="M 218.226562 92.355469 C 218.226562 92.355469 218.234375 92.449219 218.242188 92.640625 C 218.316406 93.96875 218.605469 99.8125 218.605469 107.191406 C 218.605469 113.894531 218.359375 121.871094 217.519531 128.824219 C 217.101562 132.292969 216.53125 135.507812 215.789062 138.132812 C 215.058594 140.765625 214.117188 142.796875 213.222656 143.851562 C 212.402344 144.832031 212.535156 146.289062 213.515625 147.105469 C 214.496094 147.921875 215.949219 147.789062 216.769531 146.808594 C 218.351562 144.886719 219.386719 142.355469 220.234375 139.386719 C 221.480469 134.9375 222.207031 129.46875 222.648438 123.804688 C 223.082031 118.148438 223.21875 112.304688 223.21875 107.191406 C 223.21875 98.625 222.839844 92.117188 222.835938 92.085938 C 222.765625 90.8125 221.671875 89.84375 220.398438 89.917969 C 219.125 89.992188 218.15625 91.085938 218.226562 92.355469 " fill-opacity="1" fill-rule="nonzero"/><path fill="#ffffff" d="M 212.914062 150.875 C 212.914062 152.660156 211.46875 154.105469 209.683594 154.105469 C 207.898438 154.105469 206.453125 152.660156 206.453125 150.875 C 206.453125 149.085938 207.898438 147.640625 209.683594 147.640625 C 211.46875 147.640625 212.914062 149.085938 212.914062 150.875 " fill-opacity="1" fill-rule="nonzero"/></svg>