<svg xmlns="http://www.w3.org/2000/svg" xmlns:xlink="http://www.w3.org/1999/xlink" width="500" zoomAndPan="magnify" viewBox="0 0 375 374.999991" height="500" preserveAspectRatio="xMidYMid meet" version="1.0"><defs><clipPath id="35bea1e0ee"><path d="M 34.453125 188 L 190 188 L 190 371.25 L 34.453125 371.25 Z M 34.453125 188 " clip-rule="nonzero"/></clipPath><clipPath id="0b63a1e3e4"><path d="M 34.453125 213 L 145 213 L 145 371.25 L 34.453125 371.25 Z M 34.453125 213 " clip-rule="nonzero"/></clipPath><clipPath id="dd0b5e8acc"><path d="M 182 188 L 337.453125 188 L 337.453125 371.25 L 182 371.25 Z M 182 188 " clip-rule="nonzero"/></clipPath><clipPath id="733986403c"><path d="M 227 217 L 337.453125 217 L 337.453125 371.25 L 227 371.25 Z M 227 217 " clip-rule="nonzero"/></clipPath></defs><g clip-path="url(#35bea1e0ee)"><path fill="#d82930" d="M 122.890625 371.152344 L 98.285156 310.042969 L 34.503906 329.699219 L 100.707031 188.519531 L 189.089844 229.972656 L 122.890625 371.152344 " fill-opacity="1" fill-rule="nonzero"/></g><path fill="#e54047" d="M 148.40625 293.4375 C 146.46875 292.3125 144.644531 291.117188 142.960938 289.945312 C 138.792969 287.050781 134.9375 283.613281 132.292969 279.007812 C 128.941406 273.179688 127.636719 265.917969 126.734375 258.96875 C 126.117188 254.230469 126.121094 249.53125 126.644531 244.84375 C 138.414062 251.207031 151.28125 255.804688 164.882812 258.292969 L 148.40625 293.4375 " fill-opacity="1" fill-rule="nonzero"/><g clip-path="url(#0b63a1e3e4)"><path fill="#a01d22" d="M 122.890625 371.152344 L 98.285156 310.042969 L 34.503906 329.699219 L 88.769531 213.972656 C 94.738281 221.070312 101.445312 227.519531 108.785156 233.207031 C 99.886719 264.789062 107.214844 301.601562 135.90625 320.648438 C 138.484375 322.359375 141.265625 324.09375 144.1875 325.738281 L 122.890625 371.152344 " fill-opacity="1" fill-rule="nonzero"/></g><g clip-path="url(#dd0b5e8acc)"><path fill="#d82930" d="M 249.117188 371.152344 L 273.726562 310.042969 L 337.503906 329.699219 L 271.304688 188.519531 L 182.917969 229.972656 L 249.117188 371.152344 " fill-opacity="1" fill-rule="nonzero"/></g><path fill="#e54047" d="M 223.605469 293.4375 L 207.472656 259.035156 C 220.960938 257.054688 233.777344 253.007812 245.589844 247.226562 C 245.875 251.125 245.785156 255.03125 245.277344 258.96875 C 244.375 265.917969 243.066406 273.179688 239.714844 279.007812 C 237.070312 283.613281 233.21875 287.050781 229.050781 289.945312 C 227.371094 291.117188 225.539062 292.3125 223.605469 293.4375 " fill-opacity="1" fill-rule="nonzero"/><g clip-path="url(#733986403c)"><path fill="#a01d22" d="M 249.117188 371.152344 L 227.824219 325.738281 C 230.742188 324.09375 233.523438 322.359375 236.101562 320.648438 C 263.882812 302.203125 271.636719 267.105469 264.023438 236.226562 C 271.648438 230.773438 278.660156 224.523438 284.933594 217.589844 L 337.503906 329.699219 L 273.726562 310.042969 L 249.117188 371.152344 " fill-opacity="1" fill-rule="nonzero"/></g><path fill="#dfa11b" d="M 318.578125 130.261719 C 318.578125 202.144531 260.304688 260.417969 188.429688 260.417969 C 116.550781 260.417969 58.289062 202.144531 58.289062 130.261719 C 58.289062 58.375 116.550781 0.101562 188.429688 0.101562 C 260.304688 0.101562 318.578125 58.375 318.578125 130.261719 " fill-opacity="1" fill-rule="nonzero"/><path fill="#9d6214" d="M 293.230469 130.261719 C 293.230469 188.148438 246.308594 235.070312 188.429688 235.070312 C 130.550781 235.070312 83.632812 188.148438 83.632812 130.261719 C 83.632812 72.371094 130.550781 25.449219 188.429688 25.449219 C 246.308594 25.449219 293.230469 72.371094 293.230469 130.261719 " fill-opacity="1" fill-rule="nonzero"/><path fill="#f8de19" d="M 283.777344 130.261719 C 283.777344 182.925781 241.089844 225.621094 188.433594 225.621094 C 135.769531 225.621094 93.085938 182.925781 93.085938 130.261719 C 93.085938 77.59375 135.769531 34.902344 188.433594 34.902344 C 241.089844 34.902344 283.777344 77.59375 283.777344 130.261719 " fill-opacity="1" fill-rule="nonzero"/><path fill="#fbea43" d="M 214.597656 165.003906 C 204.082031 165.003906 194.15625 161.964844 186.933594 154.554688 C 180.484375 147.941406 180.730469 135.378906 184.488281 127.640625 C 188.242188 119.890625 197.878906 115.910156 205.367188 113.0625 C 214.285156 109.671875 224.085938 108.390625 232.160156 103.472656 C 232.894531 105.042969 233.839844 106.851562 234.988281 108.644531 C 237.734375 112.738281 241.550781 116.753906 248.195312 116.753906 C 249.199219 116.753906 250.261719 116.664062 251.402344 116.46875 C 251.554688 118.609375 251.628906 120.746094 251.628906 122.871094 C 251.628906 124.757812 251.566406 126.640625 251.449219 128.511719 C 250.523438 123.789062 247.316406 120.828125 244.046875 119.140625 C 239.277344 116.667969 234.371094 116.78125 233.710938 116.691406 C 233.710938 116.6875 233.707031 116.679688 233.707031 116.675781 L 233.636719 116.675781 C 233.652344 116.855469 234.085938 121.835938 236.007812 126.996094 C 238.035156 132.058594 241.507812 137.304688 250.441406 137.363281 C 249.636719 142.242188 248.425781 147.054688 246.8125 151.75 C 247.136719 147.027344 244.753906 143.570312 241.972656 141.308594 C 237.921875 138.003906 233.066406 137.148438 232.429688 136.933594 C 232.429688 136.925781 232.429688 136.921875 232.429688 136.917969 L 232.355469 136.902344 C 232.332031 137.035156 231.816406 139.890625 231.816406 143.613281 C 231.816406 144.761719 231.863281 145.996094 231.992188 147.253906 C 232.59375 151.984375 234.308594 157.097656 241.03125 159.398438 C 239.511719 160.027344 237.964844 160.609375 236.390625 161.148438 C 236.074219 160.660156 235.730469 160.195312 235.371094 159.761719 C 232.117188 155.851562 227.507812 154.183594 226.929688 153.863281 C 226.933594 153.859375 226.933594 153.855469 226.9375 153.847656 L 226.871094 153.824219 L 226.867188 153.824219 L 226.871094 153.824219 C 226.796875 153.988281 224.820312 158.539062 224.101562 163.824219 C 224.082031 163.964844 224.070312 164.101562 224.058594 164.234375 C 220.890625 164.738281 217.714844 165.003906 214.597656 165.003906 M 246.273438 157 C 247.488281 154.023438 248.535156 150.996094 249.421875 147.925781 C 251.636719 149.078125 253.710938 149.578125 255.632812 149.578125 C 256.6875 149.578125 257.695312 149.429688 258.65625 149.148438 C 255.03125 152.050781 250.828125 154.71875 246.273438 157 M 251.3125 140.085938 C 252.074219 136.167969 252.574219 132.203125 252.808594 128.199219 C 254.445312 128.730469 255.953125 128.972656 257.339844 128.972656 C 263.316406 128.972656 266.996094 124.488281 268.546875 119.28125 C 269.515625 116.3125 269.78125 113.109375 269.78125 110.535156 C 269.78125 107.59375 269.4375 105.480469 269.398438 105.480469 L 269.398438 105.472656 C 269.394531 105.46875 269.378906 105.464844 269.34375 105.464844 C 268.773438 105.464844 263.847656 106.34375 259.707031 109.28125 C 256.585938 111.480469 253.890625 114.789062 252.921875 120.070312 C 252.769531 114.992188 252.183594 109.890625 251.160156 104.800781 C 251.878906 104.890625 252.5625 104.933594 253.214844 104.933594 C 260.785156 104.929688 263.839844 99.109375 263.957031 92.851562 C 263.972656 92.53125 263.976562 92.214844 263.976562 91.898438 C 263.980469 85.421875 261.113281 78.8125 261.039062 78.8125 L 261.039062 78.808594 L 261.039062 78.8125 C 261.035156 78.808594 261.027344 78.808594 261.019531 78.808594 C 260.71875 78.808594 256.027344 80.636719 252.746094 84.507812 C 250.351562 87.304688 248.671875 91.136719 249.113281 96.578125 C 247.929688 92.589844 246.472656 88.632812 244.730469 84.71875 C 251.984375 84.414062 254.722656 79.921875 254.730469 74.59375 C 254.730469 73.261719 254.558594 71.882812 254.242188 70.496094 C 253.59375 67.210938 252.136719 63.925781 250.773438 61.386719 C 251.886719 61.308594 252.996094 61.234375 254.109375 61.160156 C 268.96875 75.289062 279.246094 94.160156 282.574219 115.34375 C 278.976562 123.992188 274.101562 132.128906 268.308594 139.285156 C 270.441406 134.40625 270.886719 129.355469 270.886719 128.773438 C 270.886719 128.734375 270.882812 128.714844 270.882812 128.714844 C 270.878906 128.6875 270.640625 128.667969 270.214844 128.667969 C 268.617188 128.667969 264.40625 128.984375 260.421875 130.78125 C 256.839844 132.382812 253.4375 135.132812 251.3125 140.085938 M 250.292969 107.429688 C 248.273438 102.890625 244.464844 100.492188 240.898438 99.371094 C 239.945312 99.070312 239.007812 98.855469 238.113281 98.710938 C 239.46875 97.1875 240.382812 95.496094 240.925781 93.726562 C 242.621094 93.675781 244.433594 93.300781 246.390625 92.507812 C 248.128906 97.445312 249.421875 102.433594 250.292969 107.429688 M 242.738281 83.566406 C 241.585938 82.097656 240.289062 80.9375 238.925781 80.039062 C 238.316406 78.957031 237.617188 77.933594 236.847656 76.988281 C 237.851562 77.460938 238.925781 77.894531 240.078125 78.292969 C 241.023438 80.039062 241.910156 81.800781 242.738281 83.566406 M 240.113281 66.902344 C 239.578125 65.679688 238.894531 64.507812 238.109375 63.40625 C 239.433594 63.035156 240.777344 62.726562 242.007812 62.480469 C 241.730469 62.925781 241.472656 63.386719 241.234375 63.871094 C 240.769531 64.800781 240.382812 65.808594 240.113281 66.902344 " fill-opacity="1" fill-rule="nonzero"/><path fill="#99540d" d="M 189.332031 225.617188 C 189.332031 225.617188 189.335938 225.617188 189.335938 225.617188 C 189.339844 225.617188 189.347656 225.617188 189.351562 225.613281 C 189.34375 225.617188 189.335938 225.617188 189.332031 225.617188 " fill-opacity="1" fill-rule="nonzero"/><path fill="#efbc0e" d="M 189.335938 225.617188 C 189.34375 225.617188 189.351562 225.613281 189.355469 225.613281 C 189.355469 225.613281 189.351562 225.613281 189.351562 225.613281 C 189.347656 225.617188 189.339844 225.617188 189.335938 225.617188 " fill-opacity="1" fill-rule="nonzero"/><path fill="#efbc0e" d="M 189.59375 225.613281 C 189.609375 225.613281 189.617188 225.613281 189.625 225.613281 C 189.617188 225.613281 189.613281 225.613281 189.605469 225.613281 C 189.601562 225.613281 189.59375 225.613281 189.59375 225.613281 M 189.652344 225.609375 C 189.667969 225.609375 189.675781 225.609375 189.6875 225.609375 C 189.675781 225.609375 189.667969 225.609375 189.652344 225.609375 M 189.707031 225.609375 C 189.726562 225.609375 189.738281 225.609375 189.75 225.609375 C 189.738281 225.609375 189.722656 225.609375 189.707031 225.609375 " fill-opacity="1" fill-rule="nonzero"/><path fill="#efbc0e" d="M 189.917969 225.609375 C 189.929688 225.609375 189.945312 225.609375 189.960938 225.605469 C 189.953125 225.605469 189.949219 225.605469 189.945312 225.609375 C 189.9375 225.609375 189.929688 225.609375 189.925781 225.609375 C 189.921875 225.609375 189.921875 225.609375 189.917969 225.609375 " fill-opacity="1" fill-rule="nonzero"/><path fill="#99540d" d="M 190.0625 225.605469 C 190.070312 225.605469 190.066406 225.605469 190.078125 225.605469 C 190.070312 225.605469 190.066406 225.605469 190.0625 225.605469 M 190.257812 225.601562 C 190.257812 225.601562 190.261719 225.601562 190.265625 225.601562 C 190.261719 225.601562 190.257812 225.601562 190.257812 225.601562 " fill-opacity="1" fill-rule="nonzero"/><path fill="#efbc0e" d="M 190.027344 225.605469 C 190.117188 225.605469 190.203125 225.605469 190.292969 225.601562 C 190.285156 225.601562 190.273438 225.601562 190.265625 225.601562 C 190.261719 225.601562 190.257812 225.601562 190.257812 225.601562 C 190.191406 225.605469 190.136719 225.605469 190.078125 225.605469 C 190.066406 225.605469 190.070312 225.605469 190.0625 225.605469 C 190.050781 225.605469 190.039062 225.605469 190.027344 225.605469 " fill-opacity="1" fill-rule="nonzero"/><path fill="#99540d" d="M 190.320312 225.601562 C 190.324219 225.601562 190.328125 225.601562 190.332031 225.601562 C 190.328125 225.601562 190.328125 225.601562 190.320312 225.601562 M 190.386719 225.601562 C 190.390625 225.601562 190.394531 225.601562 190.398438 225.601562 C 190.394531 225.601562 190.390625 225.601562 190.386719 225.601562 M 190.457031 225.597656 C 190.460938 225.597656 190.457031 225.597656 190.460938 225.597656 L 190.457031 225.597656 M 189.171875 34.90625 C 189.167969 34.90625 189.164062 34.90625 189.160156 34.90625 C 189.164062 34.90625 189.167969 34.90625 189.171875 34.90625 M 189.070312 34.902344 C 189.066406 34.902344 189.066406 34.902344 189.058594 34.902344 C 189.058594 34.902344 189.066406 34.902344 189.070312 34.902344 M 188.960938 34.902344 C 188.960938 34.902344 188.953125 34.902344 188.949219 34.902344 C 188.957031 34.902344 188.957031 34.902344 188.960938 34.902344 M 188.863281 34.902344 C 188.859375 34.902344 188.851562 34.902344 188.84375 34.902344 C 188.851562 34.902344 188.859375 34.902344 188.863281 34.902344 M 188.753906 34.902344 L 188.746094 34.902344 C 188.75 34.902344 188.75 34.902344 188.753906 34.902344 " fill-opacity="1" fill-rule="nonzero"/><path fill="#efbc0e" d="M 190.296875 225.601562 C 227.003906 224.898438 258.621094 203.433594 273.933594 172.46875 C 264.179688 184.183594 252.269531 194.183594 238.941406 199.136719 C 239.699219 198.464844 240.117188 198.035156 240.117188 198.011719 C 240.195312 197.917969 235.722656 195.066406 229.917969 194.265625 C 228.894531 194.117188 227.828125 194.039062 226.726562 194.039062 C 223.4375 194.039062 219.808594 194.769531 215.855469 196.808594 C 220.15625 193.4375 224.105469 189.808594 227.691406 185.957031 C 230.300781 189.039062 233.453125 190.269531 236.675781 190.269531 C 240.265625 190.269531 243.9375 188.746094 247.027344 186.554688 C 252.96875 182.546875 256.839844 176.171875 256.839844 176.058594 L 256.839844 176.054688 C 256.859375 176.007812 255.804688 175.566406 254.089844 175.132812 C 264.027344 169.382812 273.015625 161.945312 280.9375 153.398438 C 270.753906 194.253906 234.238281 224.683594 190.460938 225.597656 C 190.457031 225.597656 190.460938 225.597656 190.457031 225.597656 C 190.4375 225.597656 190.417969 225.601562 190.398438 225.601562 C 190.394531 225.601562 190.390625 225.601562 190.386719 225.601562 C 190.367188 225.601562 190.347656 225.601562 190.332031 225.601562 C 190.328125 225.601562 190.324219 225.601562 190.320312 225.601562 C 190.308594 225.601562 190.304688 225.601562 190.296875 225.601562 M 209.335938 203.835938 C 208.179688 203.832031 207.011719 203.816406 205.847656 203.773438 C 206.691406 203.253906 207.527344 202.722656 208.347656 202.183594 C 208.648438 202.785156 208.976562 203.335938 209.335938 203.835938 M 203.433594 203.667969 C 189.671875 202.921875 175.40625 199.648438 162.542969 193.980469 C 164.59375 191.753906 165.320312 189.398438 165.320312 187.074219 C 165.320312 184.925781 164.695312 182.804688 163.914062 180.832031 C 162.984375 178.671875 161.867188 176.699219 160.894531 175.148438 C 173.105469 183.992188 190.035156 187.71875 206.296875 187.71875 C 207.164062 187.71875 208.019531 187.703125 208.878906 187.683594 C 209.089844 190.613281 210.578125 193.542969 214.539062 196.136719 C 211.066406 198.828125 207.363281 201.339844 203.433594 203.667969 M 222 189.777344 C 222.757812 188.597656 223.25 187.4375 223.535156 186.304688 C 224.347656 186.167969 225.144531 186.023438 225.9375 185.871094 C 224.671875 187.199219 223.355469 188.503906 222 189.777344 M 151.007812 188.011719 C 149.945312 187.367188 148.894531 186.707031 147.867188 186.023438 C 145.714844 183.734375 143.699219 181.363281 141.820312 178.910156 C 148.941406 176.019531 150.519531 171.242188 150.519531 166.65625 C 150.519531 165.925781 150.484375 165.199219 150.417969 164.492188 C 152.445312 167.476562 154.847656 170.140625 157.554688 172.496094 C 156.089844 173.597656 153.320312 175.890625 151.644531 179.257812 C 150.425781 181.71875 149.816406 184.773438 151.007812 188.011719 M 141.058594 180.113281 C 139.625 178.886719 138.171875 177.933594 136.71875 177.207031 C 134.914062 175.492188 133.207031 173.699219 131.613281 171.824219 C 132.503906 171.367188 133.386719 170.78125 134.273438 170.0625 C 136.292969 173.53125 138.558594 176.886719 141.058594 180.113281 M 136.671875 171.457031 C 134.546875 168.027344 132.667969 164.480469 131.050781 160.847656 C 139.867188 158.921875 142 153.148438 142.746094 147.878906 C 142.917969 146.410156 142.980469 144.976562 142.980469 143.667969 C 142.980469 140.230469 142.550781 137.652344 142.53125 137.53125 L 142.53125 137.527344 L 142.527344 137.527344 L 142.457031 137.546875 C 142.457031 137.550781 142.457031 137.558594 142.457031 137.5625 C 141.816406 137.789062 136.945312 138.710938 132.851562 142.074219 C 130.035156 144.375 127.597656 147.875 127.859375 152.597656 C 126.3125 147.917969 125.171875 143.117188 124.433594 138.238281 C 133.375 138.058594 136.925781 132.765625 139.019531 127.671875 C 141.015625 122.484375 141.519531 117.5 141.539062 117.320312 L 141.546875 117.316406 L 141.539062 117.316406 L 141.46875 117.320312 C 141.46875 117.324219 141.464844 117.332031 141.464844 117.339844 C 140.796875 117.433594 135.898438 117.386719 131.097656 119.929688 C 127.796875 121.664062 124.550781 124.671875 123.554688 129.410156 C 123.484375 127.964844 123.445312 126.515625 123.445312 125.0625 C 123.445312 122.503906 123.558594 119.933594 123.78125 117.359375 C 124.824219 117.523438 125.8125 117.605469 126.75 117.605469 C 133.535156 117.605469 137.464844 113.484375 140.304688 109.308594 C 143.453125 104.441406 145.152344 99.492188 145.21875 99.3125 L 145.148438 99.296875 C 145.148438 99.308594 145.144531 99.316406 145.140625 99.320312 C 144.972656 99.316406 144.546875 99.253906 143.917969 99.191406 C 143.269531 99.128906 142.394531 99.058594 141.367188 99.058594 C 139.476562 99.058594 137.0625 99.277344 134.53125 100.113281 C 134.359375 100.167969 134.191406 100.226562 134.023438 100.285156 C 138.550781 97.308594 143.976562 95.066406 150.261719 93.652344 C 162.660156 90.867188 176.023438 91 188.117188 87.101562 C 198.464844 83.761719 186.734375 80.535156 182.148438 79.523438 C 175.328125 78.023438 168.597656 77.761719 161.710938 76.941406 C 157.390625 76.425781 149.746094 76.015625 146.875 71.960938 C 149.410156 69.308594 151.140625 66.363281 152.558594 63.433594 C 153.613281 61.144531 154.476562 58.863281 155.125 56.925781 C 160.886719 53.214844 167.742188 50.273438 170.894531 48.730469 C 183.023438 42.808594 195.875 39.992188 208.902344 37.128906 C 202.390625 35.703125 195.632812 34.917969 188.691406 34.902344 C 188.710938 34.902344 188.730469 34.902344 188.746094 34.902344 L 188.753906 34.902344 C 188.785156 34.902344 188.8125 34.902344 188.84375 34.902344 C 188.851562 34.902344 188.859375 34.902344 188.863281 34.902344 C 188.894531 34.902344 188.921875 34.902344 188.949219 34.902344 C 188.953125 34.902344 188.960938 34.902344 188.960938 34.902344 C 188.992188 34.902344 189.027344 34.902344 189.058594 34.902344 C 189.066406 34.902344 189.066406 34.902344 189.070312 34.902344 C 189.097656 34.902344 189.132812 34.90625 189.160156 34.90625 C 189.164062 34.90625 189.167969 34.90625 189.171875 34.90625 C 206.824219 35.039062 223.332031 39.976562 237.460938 48.472656 C 222.996094 50.550781 208.65625 50.175781 197.644531 62.121094 C 195.039062 64.953125 193.308594 68.808594 195.699219 72.210938 C 196.472656 73.3125 197.652344 74.003906 198.886719 74.507812 C 202.957031 76.179688 221.230469 81.03125 207.632812 90.644531 C 192.875 101.070312 172.414062 97.480469 156.722656 106.054688 C 142.660156 113.746094 141.804688 133.179688 143.789062 147.042969 C 144.210938 149.984375 144.894531 152.75 145.800781 155.332031 C 144.007812 156.253906 141.324219 157.882812 139.191406 160.433594 C 136.921875 163.144531 135.304688 166.9375 136.671875 171.457031 M 130.515625 162.898438 C 127.996094 159.574219 125.039062 157.652344 122.027344 156.574219 C 121.175781 154.605469 120.4375 152.585938 119.804688 150.5 C 121.519531 150.359375 123.359375 149.824219 125.3125 148.789062 C 126.640625 153.613281 128.378906 158.335938 130.515625 162.898438 M 123.535156 140.996094 C 122.03125 137.386719 119.828125 134.96875 117.363281 133.328125 C 117.371094 132.179688 117.414062 131.054688 117.488281 129.953125 C 117.492188 129.953125 117.492188 129.953125 117.492188 129.953125 C 118.921875 129.953125 120.492188 129.6875 122.199219 129.113281 C 122.378906 133.113281 122.828125 137.085938 123.535156 140.996094 M 122.199219 120.984375 C 121.890625 119.144531 121.363281 117.546875 120.679688 116.152344 C 121.390625 114.488281 122.207031 112.902344 123.140625 111.390625 C 122.65625 114.59375 122.347656 117.792969 122.199219 120.984375 " fill-opacity="1" fill-rule="nonzero"/><path fill="#99540d" d="M 188.433594 225.621094 C 135.769531 225.621094 93.085938 182.925781 93.085938 130.261719 C 93.085938 182.925781 135.769531 225.621094 188.433594 225.621094 C 188.453125 225.621094 188.476562 225.621094 188.492188 225.621094 C 188.472656 225.621094 188.453125 225.621094 188.433594 225.621094 M 188.519531 225.617188 C 188.523438 225.617188 188.523438 225.617188 188.53125 225.617188 C 188.539062 225.617188 188.546875 225.617188 188.554688 225.617188 C 188.542969 225.617188 188.535156 225.617188 188.519531 225.617188 " fill-opacity="1" fill-rule="nonzero"/><path fill="#efbc0e" d="M 188.511719 225.621094 C 188.519531 225.617188 188.519531 225.617188 188.53125 225.617188 C 188.523438 225.617188 188.523438 225.617188 188.519531 225.617188 C 188.519531 225.617188 188.515625 225.617188 188.511719 225.621094 " fill-opacity="1" fill-rule="nonzero"/><path fill="#99540d" d="M 189.292969 225.617188 C 189.308594 225.617188 189.320312 225.617188 189.332031 225.617188 C 189.320312 225.617188 189.308594 225.617188 189.292969 225.617188 M 189.367188 225.613281 C 189.371094 225.613281 189.378906 225.613281 189.382812 225.613281 C 189.386719 225.613281 189.386719 225.613281 189.390625 225.613281 C 189.382812 225.613281 189.375 225.613281 189.367188 225.613281 " fill-opacity="1" fill-rule="nonzero"/><path fill="#99540d" d="M 189.628906 225.613281 C 189.636719 225.613281 189.636719 225.613281 189.644531 225.609375 C 189.636719 225.613281 189.632812 225.613281 189.628906 225.613281 " fill-opacity="1" fill-rule="nonzero"/><path fill="#efbc0e" d="M 189.628906 225.613281 C 189.636719 225.613281 189.644531 225.609375 189.652344 225.609375 C 189.648438 225.609375 189.644531 225.609375 189.644531 225.609375 C 189.636719 225.613281 189.636719 225.613281 189.628906 225.613281 " fill-opacity="1" fill-rule="nonzero"/><path fill="#efbc0e" d="M 189.6875 225.609375 C 189.695312 225.609375 189.703125 225.609375 189.707031 225.609375 C 189.707031 225.609375 189.707031 225.609375 189.703125 225.609375 C 189.699219 225.609375 189.691406 225.609375 189.6875 225.609375 M 189.75 225.609375 C 189.75 225.609375 189.75 225.609375 189.753906 225.609375 C 189.75 225.609375 189.75 225.609375 189.75 225.609375 M 189.90625 225.609375 C 189.910156 225.609375 189.914062 225.609375 189.917969 225.609375 C 189.914062 225.609375 189.910156 225.609375 189.90625 225.609375 M 189.960938 225.605469 C 189.96875 225.605469 189.96875 225.605469 189.976562 225.605469 C 189.972656 225.605469 189.96875 225.605469 189.960938 225.605469 M 190.023438 225.605469 L 190.027344 225.605469 L 190.023438 225.605469 M 190.292969 225.601562 L 190.296875 225.601562 L 190.292969 225.601562 M 188.691406 34.902344 C 188.683594 34.902344 188.679688 34.902344 188.671875 34.902344 C 188.679688 34.902344 188.683594 34.902344 188.691406 34.902344 M 188.617188 34.902344 C 188.597656 34.902344 188.582031 34.902344 188.566406 34.902344 C 188.582031 34.902344 188.601562 34.902344 188.617188 34.902344 " fill-opacity="1" fill-rule="nonzero"/><path fill="#95490f" d="M 188.433594 225.621094 C 135.769531 225.621094 93.085938 182.925781 93.085938 130.261719 C 93.085938 182.925781 135.769531 225.621094 188.433594 225.621094 C 188.453125 225.621094 188.480469 225.621094 188.5 225.621094 C 188.5 225.621094 188.496094 225.621094 188.492188 225.621094 C 188.476562 225.621094 188.453125 225.621094 188.433594 225.621094 M 188.53125 225.617188 C 188.546875 225.617188 188.558594 225.617188 188.574219 225.617188 C 188.566406 225.617188 188.5625 225.617188 188.554688 225.617188 C 188.546875 225.617188 188.539062 225.617188 188.53125 225.617188 M 188.605469 225.617188 C 188.617188 225.617188 188.636719 225.617188 188.652344 225.617188 C 188.644531 225.617188 188.640625 225.617188 188.636719 225.617188 C 188.632812 225.617188 188.621094 225.617188 188.617188 225.617188 C 188.613281 225.617188 188.609375 225.617188 188.605469 225.617188 M 188.679688 225.617188 C 188.691406 225.617188 188.703125 225.617188 188.722656 225.617188 C 188.71875 225.617188 188.703125 225.617188 188.699219 225.617188 C 188.695312 225.617188 188.683594 225.617188 188.679688 225.617188 M 188.75 225.617188 C 188.769531 225.617188 188.789062 225.617188 188.804688 225.617188 C 188.789062 225.617188 188.777344 225.617188 188.761719 225.617188 C 188.757812 225.617188 188.753906 225.617188 188.75 225.617188 M 188.820312 225.617188 C 188.847656 225.617188 188.863281 225.617188 188.882812 225.617188 C 188.867188 225.617188 188.855469 225.617188 188.839844 225.617188 C 188.835938 225.617188 188.828125 225.617188 188.820312 225.617188 M 188.910156 225.617188 C 188.925781 225.617188 188.941406 225.617188 188.960938 225.617188 C 188.953125 225.617188 188.953125 225.617188 188.941406 225.617188 C 188.933594 225.617188 188.917969 225.617188 188.910156 225.617188 M 188.992188 225.617188 C 189.011719 225.617188 189.019531 225.617188 189.035156 225.617188 C 189.03125 225.617188 189.03125 225.617188 189.03125 225.617188 C 189.019531 225.617188 189.015625 225.617188 189.007812 225.617188 C 189 225.617188 188.996094 225.617188 188.992188 225.617188 M 189.070312 225.617188 C 189.082031 225.617188 189.09375 225.617188 189.105469 225.617188 C 189.097656 225.617188 189.097656 225.617188 189.089844 225.617188 C 189.082031 225.617188 189.082031 225.617188 189.074219 225.617188 L 189.070312 225.617188 M 189.140625 225.617188 C 189.15625 225.617188 189.164062 225.617188 189.179688 225.617188 C 189.179688 225.617188 189.175781 225.617188 189.171875 225.617188 C 189.164062 225.617188 189.15625 225.617188 189.148438 225.617188 C 189.144531 225.617188 189.144531 225.617188 189.140625 225.617188 M 189.21875 225.617188 C 189.230469 225.617188 189.25 225.617188 189.261719 225.617188 C 189.253906 225.617188 189.246094 225.617188 189.234375 225.617188 C 189.230469 225.617188 189.222656 225.617188 189.21875 225.617188 M 189.292969 225.617188 C 189.308594 225.617188 189.324219 225.617188 189.335938 225.617188 C 189.335938 225.617188 189.332031 225.617188 189.332031 225.617188 C 189.320312 225.617188 189.308594 225.617188 189.292969 225.617188 M 189.382812 225.613281 C 189.394531 225.613281 189.410156 225.613281 189.425781 225.613281 L 189.417969 225.613281 C 189.40625 225.613281 189.398438 225.613281 189.390625 225.613281 C 189.386719 225.613281 189.386719 225.613281 189.382812 225.613281 M 189.457031 225.613281 C 189.46875 225.613281 189.476562 225.613281 189.492188 225.613281 C 189.476562 225.613281 189.46875 225.613281 189.457031 225.613281 M 189.53125 225.613281 C 189.535156 225.613281 189.546875 225.613281 189.554688 225.613281 C 189.550781 225.613281 189.542969 225.613281 189.535156 225.613281 C 189.53125 225.613281 189.53125 225.613281 189.53125 225.613281 M 189.625 225.613281 L 189.628906 225.613281 L 189.625 225.613281 M 189.855469 225.609375 L 189.863281 225.609375 C 189.859375 225.609375 189.859375 225.609375 189.855469 225.609375 " fill-opacity="1" fill-rule="nonzero"/><path fill="#e8a012" d="M 188.433594 225.621094 C 135.769531 225.621094 93.085938 182.925781 93.085938 130.261719 C 93.085938 77.59375 135.769531 34.902344 188.433594 34.902344 C 188.464844 34.902344 188.496094 34.902344 188.523438 34.902344 C 188.542969 34.902344 188.554688 34.902344 188.566406 34.902344 C 188.582031 34.902344 188.597656 34.902344 188.617188 34.902344 C 188.632812 34.902344 188.65625 34.902344 188.671875 34.902344 C 188.679688 34.902344 188.683594 34.902344 188.691406 34.902344 C 195.632812 34.917969 202.390625 35.703125 208.902344 37.128906 C 195.875 39.992188 183.023438 42.808594 170.894531 48.730469 C 167.742188 50.273438 160.886719 53.214844 155.125 56.925781 C 156.15625 53.867188 156.671875 51.660156 156.664062 51.613281 L 156.660156 51.617188 C 156.664062 51.671875 149.789062 53.390625 143.597656 58.257812 C 140.429688 60.675781 137.445312 63.921875 135.777344 67.628906 C 135.519531 66.542969 135.152344 65.539062 134.699219 64.617188 C 132.539062 60.113281 128.414062 57.535156 128.195312 57.535156 C 128.1875 57.535156 128.1875 57.535156 128.1875 57.535156 L 128.183594 57.535156 L 128.183594 57.539062 C 128.089844 57.539062 123.054688 64.5 121.59375 71.421875 C 121.242188 72.886719 121.050781 74.34375 121.050781 75.742188 C 121.050781 80.972656 123.746094 85.3125 130.890625 85.511719 C 129.101562 89.441406 127.589844 93.414062 126.351562 97.410156 C 126.867188 91.976562 125.238281 88.175781 122.890625 85.414062 C 119.667969 81.589844 115.003906 79.832031 114.695312 79.832031 C 114.6875 79.832031 114.683594 79.832031 114.679688 79.835938 C 114.605469 79.835938 111.550781 86.691406 111.550781 93.257812 C 111.550781 93.476562 111.550781 93.695312 111.558594 93.914062 C 111.585938 100.113281 114.503906 105.851562 121.925781 105.851562 C 122.636719 105.851562 123.386719 105.796875 124.183594 105.6875 C 123.777344 107.585938 123.429688 109.488281 123.140625 111.390625 C 122.207031 112.902344 121.390625 114.488281 120.679688 116.152344 C 119.402344 113.566406 117.585938 111.6875 115.574219 110.289062 C 111.496094 107.425781 106.609375 106.609375 106 106.609375 C 105.960938 106.609375 105.9375 106.613281 105.9375 106.617188 L 105.9375 106.621094 C 105.9375 106.617188 105.9375 106.617188 105.9375 106.617188 C 105.894531 106.617188 105.476562 109.003906 105.476562 112.222656 C 105.476562 114.699219 105.726562 117.660156 106.589844 120.410156 C 108.050781 125.550781 111.613281 129.949219 117.488281 129.953125 C 117.414062 131.054688 117.371094 132.179688 117.363281 133.328125 C 116.453125 132.71875 115.507812 132.21875 114.550781 131.800781 C 110.730469 130.125 106.691406 129.824219 104.972656 129.824219 C 104.433594 129.824219 104.121094 129.851562 104.117188 129.875 L 104.117188 129.882812 C 104.113281 129.882812 104.113281 129.910156 104.113281 129.960938 C 104.113281 130.765625 104.65625 137.585938 107.832031 142.996094 C 110.140625 147.175781 113.972656 150.535156 118.917969 150.535156 C 119.210938 150.535156 119.503906 150.523438 119.804688 150.5 C 120.4375 152.585938 121.175781 154.605469 122.027344 156.574219 C 121.109375 156.246094 120.183594 155.992188 119.265625 155.804688 C 117.492188 155.4375 115.742188 155.308594 114.175781 155.308594 C 110.871094 155.308594 108.410156 155.878906 108.421875 155.957031 L 108.425781 155.957031 C 108.421875 155.957031 108.421875 155.960938 108.421875 155.960938 C 108.425781 156.160156 110.683594 162.996094 115.433594 167.8125 C 118.308594 170.871094 122.144531 173.144531 126.28125 173.144531 C 128.019531 173.144531 129.8125 172.742188 131.613281 171.824219 C 133.207031 173.699219 134.914062 175.492188 136.71875 177.207031 C 133.847656 175.761719 130.984375 175.199219 128.265625 175.101562 C 127.988281 175.09375 127.710938 175.089844 127.433594 175.089844 C 122.019531 175.089844 117.445312 176.929688 117.484375 177.03125 L 117.480469 177.03125 L 117.484375 177.03125 C 117.484375 177.03125 117.484375 177.03125 117.484375 177.035156 C 117.488281 177.15625 121.269531 183.46875 127.144531 187.390625 C 130.15625 189.503906 133.734375 190.960938 137.269531 190.960938 C 140.554688 190.960938 143.796875 189.699219 146.503906 186.515625 C 150.039062 190.328125 153.953125 193.914062 158.222656 197.234375 C 154.402344 195.296875 150.867188 194.589844 147.652344 194.589844 C 146.4375 194.589844 145.269531 194.691406 144.148438 194.863281 C 138.335938 195.75 133.820312 198.660156 133.894531 198.75 L 133.894531 198.757812 C 133.890625 198.835938 139.375 204.246094 146.398438 206.9375 C 149.097656 208.039062 152.023438 208.730469 154.816406 208.730469 C 159.226562 208.730469 163.304688 207.011719 165.613281 202.476562 C 171.53125 206.304688 178.023438 209.667969 185.054688 212.480469 C 182.085938 213.605469 179.027344 214.636719 175.878906 215.570312 C 175.523438 215.671875 175.316406 216.046875 175.425781 216.402344 C 175.511719 216.691406 175.777344 216.878906 176.066406 216.878906 C 176.128906 216.878906 176.191406 216.871094 176.253906 216.851562 C 179.925781 215.765625 183.480469 214.542969 186.90625 213.199219 C 190.320312 214.5 193.851562 215.667969 197.511719 216.703125 C 197.566406 216.71875 197.632812 216.726562 197.691406 216.726562 C 197.980469 216.726562 198.25 216.535156 198.332031 216.242188 C 198.433594 215.886719 198.230469 215.519531 197.875 215.417969 C 194.738281 214.527344 191.699219 213.542969 188.75 212.457031 C 194.855469 209.949219 200.558594 207.039062 205.847656 203.773438 C 207.011719 203.816406 208.179688 203.832031 209.335938 203.835938 C 211.628906 207.027344 215.085938 208.28125 218.816406 208.28125 C 221.679688 208.28125 224.707031 207.546875 227.492188 206.375 C 232.617188 204.347656 236.949219 200.90625 238.941406 199.136719 C 252.269531 194.183594 264.179688 184.183594 273.933594 172.46875 C 258.621094 203.433594 227.003906 224.898438 190.296875 225.601562 L 190.292969 225.601562 C 190.203125 225.605469 190.117188 225.605469 190.027344 225.605469 L 190.023438 225.605469 C 190.003906 225.605469 189.988281 225.605469 189.976562 225.605469 C 189.96875 225.605469 189.96875 225.605469 189.960938 225.605469 C 189.945312 225.609375 189.929688 225.609375 189.917969 225.609375 C 189.914062 225.609375 189.910156 225.609375 189.90625 225.609375 C 189.886719 225.609375 189.878906 225.609375 189.863281 225.609375 L 189.855469 225.609375 C 189.820312 225.609375 189.789062 225.609375 189.753906 225.609375 C 189.75 225.609375 189.75 225.609375 189.75 225.609375 C 189.738281 225.609375 189.726562 225.609375 189.707031 225.609375 C 189.703125 225.609375 189.695312 225.609375 189.6875 225.609375 C 189.675781 225.609375 189.667969 225.609375 189.652344 225.609375 C 189.644531 225.609375 189.636719 225.613281 189.628906 225.613281 L 189.625 225.613281 C 189.617188 225.613281 189.609375 225.613281 189.59375 225.613281 C 189.585938 225.613281 189.574219 225.613281 189.566406 225.613281 C 189.5625 225.613281 189.558594 225.613281 189.554688 225.613281 C 189.546875 225.613281 189.535156 225.613281 189.53125 225.613281 C 189.523438 225.613281 189.515625 225.613281 189.507812 225.613281 C 189.503906 225.613281 189.496094 225.613281 189.492188 225.613281 C 189.476562 225.613281 189.46875 225.613281 189.457031 225.613281 C 189.449219 225.613281 189.445312 225.613281 189.4375 225.613281 C 189.433594 225.613281 189.429688 225.613281 189.425781 225.613281 C 189.410156 225.613281 189.394531 225.613281 189.382812 225.613281 C 189.375 225.613281 189.367188 225.613281 189.355469 225.613281 C 189.351562 225.613281 189.34375 225.617188 189.335938 225.617188 C 189.324219 225.617188 189.308594 225.617188 189.292969 225.617188 C 189.285156 225.617188 189.277344 225.617188 189.269531 225.617188 C 189.269531 225.617188 189.265625 225.617188 189.261719 225.617188 C 189.25 225.617188 189.230469 225.617188 189.21875 225.617188 C 189.214844 225.617188 189.210938 225.617188 189.207031 225.617188 C 189.199219 225.617188 189.191406 225.617188 189.179688 225.617188 C 189.164062 225.617188 189.15625 225.617188 189.140625 225.617188 C 189.132812 225.617188 189.113281 225.617188 189.105469 225.617188 C 189.09375 225.617188 189.082031 225.617188 189.070312 225.617188 C 189.054688 225.617188 189.046875 225.617188 189.035156 225.617188 C 189.019531 225.617188 189.011719 225.617188 188.992188 225.617188 C 188.988281 225.617188 188.972656 225.617188 188.96875 225.617188 C 188.96875 225.617188 188.960938 225.617188 188.960938 225.617188 C 188.941406 225.617188 188.925781 225.617188 188.910156 225.617188 C 188.910156 225.617188 188.90625 225.617188 188.90625 225.617188 C 188.898438 225.617188 188.894531 225.617188 188.882812 225.617188 C 188.863281 225.617188 188.847656 225.617188 188.820312 225.617188 C 188.816406 225.617188 188.808594 225.617188 188.804688 225.617188 C 188.789062 225.617188 188.769531 225.617188 188.75 225.617188 C 188.738281 225.617188 188.734375 225.617188 188.722656 225.617188 C 188.703125 225.617188 188.691406 225.617188 188.679688 225.617188 C 188.667969 225.617188 188.660156 225.617188 188.652344 225.617188 C 188.636719 225.617188 188.617188 225.617188 188.605469 225.617188 C 188.597656 225.617188 188.585938 225.617188 188.578125 225.617188 L 188.574219 225.617188 C 188.558594 225.617188 188.546875 225.617188 188.53125 225.617188 C 188.519531 225.617188 188.519531 225.617188 188.511719 225.621094 C 188.507812 225.621094 188.503906 225.621094 188.5 225.621094 C 188.480469 225.621094 188.453125 225.621094 188.433594 225.621094 M 186.898438 211.765625 C 176.566406 207.773438 167.410156 202.609375 159.492188 196.527344 C 160.734375 195.703125 161.738281 194.855469 162.542969 193.980469 C 175.40625 199.648438 189.671875 202.921875 203.433594 203.667969 C 198.304688 206.710938 192.789062 209.421875 186.898438 211.765625 M 152.152344 190.300781 C 150.671875 188.910156 149.238281 187.484375 147.867188 186.023438 C 148.894531 186.707031 149.945312 187.367188 151.007812 188.011719 C 151.285156 188.761719 151.664062 189.527344 152.152344 190.300781 M 125.023438 108.292969 C 125.964844 103.289062 127.332031 98.285156 129.136719 93.328125 C 131.15625 94.125 133.027344 94.46875 134.78125 94.46875 C 139.847656 94.46875 143.851562 91.582031 147.160156 88.476562 C 151.554688 84.171875 154.660156 79.460938 154.777344 79.285156 L 154.78125 79.285156 L 154.777344 79.285156 L 154.714844 79.261719 C 154.710938 79.269531 154.707031 79.273438 154.703125 79.28125 C 154.445312 79.21875 153.628906 78.886719 152.378906 78.550781 C 150.996094 78.183594 149.089844 77.816406 146.867188 77.816406 C 146.054688 77.816406 145.207031 77.863281 144.320312 77.976562 C 140.582031 78.449219 136.21875 80.164062 132.933594 84.308594 C 133.78125 82.535156 134.6875 80.769531 135.660156 79.015625 C 140.660156 77.230469 144.210938 74.757812 146.875 71.960938 C 149.746094 76.015625 157.390625 76.425781 161.710938 76.941406 C 168.597656 77.761719 175.328125 78.023438 182.148438 79.523438 C 186.734375 80.535156 198.464844 83.761719 188.117188 87.101562 C 176.023438 91 162.660156 90.867188 150.261719 93.652344 C 143.976562 95.066406 138.550781 97.308594 134.023438 100.285156 C 130.589844 101.515625 127.007812 103.945312 125.023438 108.292969 " fill-opacity="1" fill-rule="nonzero"/><path fill="#c79326" d="M 156.664062 51.613281 L 156.660156 51.617188 C 156.664062 51.671875 149.789062 53.390625 143.597656 58.257812 C 137.441406 62.953125 131.960938 70.796875 135.546875 79.058594 C 145.375 75.578125 149.644531 69.46875 152.558594 63.433594 C 155.292969 57.527344 156.679688 51.691406 156.664062 51.613281 " fill-opacity="1" fill-rule="nonzero"/><path fill="#e1bc47" d="M 145.648438 69.113281 C 144.644531 68.4375 144.035156 67.355469 144.085938 65.980469 C 144.164062 63.6875 145.925781 61.089844 147.953125 59.15625 C 149.652344 57.53125 151.824219 56.007812 153.984375 55.261719 C 153.574219 57.074219 152.550781 65.34375 145.648438 69.113281 " fill-opacity="1" fill-rule="nonzero"/><path fill="#a26021" d="M 135.660156 79.015625 C 136.074219 78.265625 136.496094 77.519531 136.933594 76.769531 C 137.117188 76.453125 137.007812 76.042969 136.691406 75.855469 C 136.585938 75.792969 136.46875 75.761719 136.355469 75.761719 C 136.125 75.761719 135.902344 75.882812 135.78125 76.097656 C 135.539062 76.507812 135.300781 76.925781 135.066406 77.339844 C 136.339844 73.503906 136.40625 70.304688 135.777344 67.628906 C 137.445312 63.921875 140.429688 60.675781 143.597656 58.257812 C 149.789062 53.390625 156.664062 51.671875 156.660156 51.617188 L 156.664062 51.613281 L 156.640625 51.695312 C 152.660156 53.09375 148.609375 56.054688 145.507812 59.214844 C 141.875 62.863281 139.300781 67.5625 139.421875 71.496094 C 139.46875 73.292969 140.535156 74.929688 142.054688 75.921875 C 140.238281 77.082031 138.132812 78.125 135.660156 79.015625 " fill-opacity="1" fill-rule="nonzero"/><path fill="#c4951b" d="M 128.1875 57.535156 L 128.183594 57.535156 L 128.183594 57.539062 C 128.128906 57.488281 123.058594 64.476562 121.59375 71.421875 C 119.917969 78.386719 121.851562 85.3125 131 85.511719 C 137.203125 75.890625 136.96875 69.261719 134.699219 64.617188 C 132.507812 60.039062 128.273438 57.453125 128.1875 57.535156 " fill-opacity="1" fill-rule="nonzero"/><path fill="#debd25" d="M 130.101562 73.367188 C 129.5625 73.367188 129.066406 73.273438 128.625 73.070312 C 126.808594 72.25 126.25 69.894531 126.507812 67.492188 C 126.710938 65.476562 127.449219 63.066406 128.914062 60.859375 C 130.316406 61.507812 136.359375 65.179688 132.640625 72.796875 C 131.753906 73.164062 130.886719 73.367188 130.101562 73.367188 " fill-opacity="1" fill-rule="nonzero"/><path fill="#9f6120" d="M 130.890625 85.511719 C 123.746094 85.3125 121.050781 80.972656 121.050781 75.742188 C 121.050781 74.34375 121.242188 72.886719 121.59375 71.421875 C 123.054688 64.5 128.089844 57.539062 128.183594 57.539062 L 128.183594 57.535156 L 128.1875 57.535156 L 128.242188 57.570312 C 125.554688 61.636719 124.390625 66.101562 124.214844 69.816406 C 123.988281 74.140625 125.546875 77.847656 128.734375 79.167969 C 129.273438 79.398438 129.921875 79.503906 130.632812 79.503906 C 131.742188 79.503906 133 79.25 134.253906 78.796875 C 133.042969 81.023438 131.921875 83.257812 130.890625 85.511719 " fill-opacity="1" fill-rule="nonzero"/><path fill="#d0871f" d="M 154.777344 79.285156 L 154.78125 79.285156 L 154.777344 79.285156 C 154.660156 79.460938 151.554688 84.171875 147.160156 88.476562 C 142.65625 92.707031 136.863281 96.527344 128.84375 93.210938 C 131.382812 82.347656 138.589844 78.703125 144.320312 77.976562 C 147.644531 77.546875 150.496094 78.050781 152.378906 78.550781 C 153.824219 78.941406 154.703125 79.324219 154.777344 79.285156 " fill-opacity="1" fill-rule="nonzero"/><path fill="#e5b32d" d="M 141.730469 85.921875 C 141.359375 85.921875 140.996094 85.886719 140.644531 85.800781 C 139.449219 85.515625 138.542969 84.667969 138.066406 83.46875 C 140.484375 79.929688 143.710938 79.019531 146.398438 79.019531 C 148.75 79.019531 150.683594 79.71875 151.300781 79.960938 C 150.15625 81.617188 148.523438 83.007812 146.917969 84.058594 C 145.339844 85.078125 143.464844 85.921875 141.730469 85.921875 " fill-opacity="1" fill-rule="nonzero"/><path fill="#bb671e" d="M 154.765625 79.289062 C 154.75 79.289062 154.730469 79.285156 154.703125 79.28125 C 154.707031 79.273438 154.710938 79.269531 154.714844 79.261719 L 154.777344 79.285156 C 154.777344 79.289062 154.769531 79.289062 154.765625 79.289062 " fill-opacity="1" fill-rule="nonzero"/><path fill="#a85a21" d="M 134.78125 94.46875 C 133.027344 94.46875 131.15625 94.125 129.136719 93.328125 C 129.9375 91.128906 130.824219 88.933594 131.800781 86.75 C 132.695312 88.242188 134.078125 89.296875 135.542969 89.546875 C 136.050781 89.636719 136.570312 89.671875 137.097656 89.671875 C 140.222656 89.671875 143.597656 88.246094 146.53125 86.371094 C 149.492188 84.453125 152.523438 82.09375 154.703125 79.28125 C 154.730469 79.285156 154.75 79.289062 154.765625 79.289062 C 154.769531 79.289062 154.777344 79.289062 154.777344 79.285156 L 154.78125 79.285156 L 154.777344 79.285156 C 154.660156 79.460938 151.554688 84.171875 147.160156 88.476562 C 143.851562 91.582031 139.847656 94.46875 134.78125 94.46875 " fill-opacity="1" fill-rule="nonzero"/><path fill="#d0871f" d="M 135.78125 76.097656 C 126.546875 91.910156 122.109375 108.707031 122.109375 125.0625 C 122.101562 165.398438 149.121094 203.019531 197.511719 216.703125 C 197.863281 216.804688 198.234375 216.597656 198.332031 216.242188 C 198.433594 215.886719 198.230469 215.519531 197.875 215.417969 C 149.984375 201.851562 123.453125 164.785156 123.445312 125.0625 C 123.445312 108.949219 127.820312 92.386719 136.933594 76.769531 C 137.117188 76.453125 137.007812 76.042969 136.691406 75.855469 C 136.375 75.667969 135.964844 75.773438 135.78125 76.097656 " fill-opacity="1" fill-rule="nonzero"/><path fill="#c4951b" d="M 145.21875 99.3125 C 145.152344 99.492188 143.453125 104.441406 140.304688 109.308594 C 137.039062 114.117188 132.320312 118.84375 123.480469 117.308594 C 123.015625 106.648438 129.074219 101.890625 134.53125 100.113281 C 138.445312 98.824219 142.0625 99.011719 143.917969 99.191406 C 144.707031 99.269531 145.175781 99.34375 145.21875 99.3125 " fill-opacity="1" fill-rule="nonzero"/><path fill="#debd25" d="M 133.222656 108.082031 C 133.1875 108.082031 133.148438 108.082031 133.113281 108.082031 C 131.851562 108.054688 130.714844 107.445312 129.90625 106.414062 C 131.808594 101.28125 136.585938 100.421875 139.597656 100.421875 C 140.714844 100.421875 141.585938 100.539062 141.980469 100.601562 C 141.332031 102.351562 140.117188 103.960938 138.824219 105.246094 C 137.308594 106.734375 135.300781 108.082031 133.222656 108.082031 " fill-opacity="1" fill-rule="nonzero"/><path fill="#bf761c" d="M 145.160156 99.320312 C 145.15625 99.320312 145.148438 99.320312 145.140625 99.320312 C 145.144531 99.316406 145.148438 99.308594 145.148438 99.296875 L 145.21875 99.3125 C 145.210938 99.320312 145.195312 99.320312 145.160156 99.320312 " fill-opacity="1" fill-rule="nonzero"/><path fill="#a85a21" d="M 123.78125 117.359375 C 123.679688 117.34375 123.582031 117.328125 123.480469 117.308594 C 123.582031 117.328125 123.679688 117.34375 123.78125 117.359375 M 123.480469 117.308594 C 123.308594 114.660156 123.617188 112.320312 124.246094 110.304688 C 124.25 110.3125 124.253906 110.316406 124.257812 110.324219 C 123.660156 112.308594 123.363281 114.617188 123.480469 117.308594 " fill-opacity="1" fill-rule="nonzero"/><path fill="#9f6120" d="M 126.75 117.605469 C 125.8125 117.605469 124.824219 117.523438 123.78125 117.359375 C 123.679688 117.34375 123.582031 117.328125 123.480469 117.308594 C 123.363281 114.617188 123.660156 112.308594 124.257812 110.324219 C 125.5625 111.722656 127.332031 112.574219 128.957031 112.574219 C 129.007812 112.574219 129.058594 112.574219 129.105469 112.574219 C 132.769531 112.4375 136.320312 110.175781 139.09375 107.46875 C 141.488281 105.113281 143.8125 102.328125 145.140625 99.320312 C 145.148438 99.320312 145.15625 99.320312 145.160156 99.320312 C 145.195312 99.320312 145.210938 99.320312 145.21875 99.3125 C 145.152344 99.492188 143.453125 104.441406 140.304688 109.308594 C 137.464844 113.484375 133.535156 117.605469 126.75 117.605469 " fill-opacity="1" fill-rule="nonzero"/><path fill="#d0871f" d="M 141.539062 117.316406 L 141.546875 117.316406 L 141.539062 117.320312 C 141.519531 117.5 141.015625 122.484375 139.019531 127.671875 C 136.898438 132.824219 133.292969 138.175781 124.132812 138.242188 C 121.191406 128.125 126.089844 122.5625 131.097656 119.929688 C 136.203125 117.222656 141.425781 117.449219 141.539062 117.316406 " fill-opacity="1" fill-rule="nonzero"/><path fill="#e5b32d" d="M 130.941406 127.808594 C 129.890625 127.808594 128.859375 127.421875 127.988281 126.722656 C 128.914062 119.570312 137.125 119.144531 138.625 119.101562 C 138.402344 120.875 137.570312 122.617188 136.585938 124.066406 C 135.417969 125.773438 133.695312 127.433594 131.574219 127.757812 C 131.363281 127.789062 131.152344 127.808594 130.941406 127.808594 " fill-opacity="1" fill-rule="nonzero"/><path fill="#a85a21" d="M 124.132812 138.242188 C 123.351562 135.734375 123.113281 133.449219 123.261719 131.417969 C 123.265625 131.425781 123.273438 131.429688 123.277344 131.433594 C 123.148438 133.429688 123.390625 135.6875 124.132812 138.242188 " fill-opacity="1" fill-rule="nonzero"/><path fill="#bf761c" d="M 141.464844 117.339844 C 141.464844 117.332031 141.46875 117.324219 141.46875 117.320312 L 141.539062 117.316406 C 141.53125 117.328125 141.507812 117.332031 141.464844 117.339844 " fill-opacity="1" fill-rule="nonzero"/><path fill="#a85a21" d="M 124.132812 138.242188 C 123.390625 135.6875 123.148438 133.429688 123.277344 131.433594 C 124.609375 132.335938 126.164062 132.839844 127.570312 132.839844 C 127.9375 132.839844 128.292969 132.808594 128.628906 132.738281 C 132.25 131.96875 135.257812 129.191406 137.386719 126.128906 C 139.210938 123.472656 140.867188 120.421875 141.464844 117.339844 C 141.507812 117.332031 141.53125 117.328125 141.539062 117.316406 L 141.546875 117.316406 L 141.539062 117.320312 C 141.519531 117.5 141.015625 122.484375 139.019531 127.671875 C 136.898438 132.824219 133.292969 138.175781 124.132812 138.242188 " fill-opacity="1" fill-rule="nonzero"/><path fill="#c4951b" d="M 142.527344 137.527344 L 142.53125 137.527344 L 142.53125 137.53125 C 142.5625 137.703125 143.363281 142.539062 142.746094 147.878906 C 141.992188 153.207031 139.820312 159.050781 130.75 160.910156 C 125.175781 151.8125 128.582031 145.566406 132.851562 142.074219 C 137.210938 138.496094 142.445312 137.679688 142.527344 137.527344 " fill-opacity="1" fill-rule="nonzero"/><path fill="#debd25" d="M 133.855469 149.6875 C 133.085938 149.6875 132.300781 149.503906 131.554688 149.152344 C 130.601562 142.152344 138.632812 140.136719 140.105469 139.800781 C 140.347656 141.527344 139.980469 143.347656 139.386719 144.917969 C 138.671875 146.777344 137.398438 148.707031 135.382812 149.429688 C 134.894531 149.601562 134.378906 149.6875 133.855469 149.6875 " fill-opacity="1" fill-rule="nonzero"/><path fill="#a85a21" d="M 130.75 160.910156 C 129.316406 158.664062 128.480469 156.523438 128.09375 154.558594 C 128.105469 154.558594 128.113281 154.5625 128.117188 154.566406 C 128.507812 156.5 129.34375 158.613281 130.75 160.910156 " fill-opacity="1" fill-rule="nonzero"/><path fill="#bf761c" d="M 142.457031 137.5625 C 142.457031 137.558594 142.457031 137.550781 142.457031 137.546875 L 142.527344 137.527344 C 142.523438 137.535156 142.5 137.550781 142.457031 137.5625 " fill-opacity="1" fill-rule="nonzero"/><path fill="#9f6120" d="M 130.75 160.910156 C 129.34375 158.613281 128.507812 156.5 128.117188 154.566406 C 129.195312 154.984375 130.328125 155.199219 131.386719 155.199219 C 132.253906 155.199219 133.074219 155.050781 133.769531 154.761719 C 137.160156 153.3125 139.410156 150.0625 140.722656 146.730469 C 141.832031 143.839844 142.675781 140.609375 142.457031 137.5625 C 142.5 137.550781 142.523438 137.535156 142.527344 137.527344 L 142.53125 137.527344 L 142.53125 137.53125 C 142.550781 137.652344 142.980469 140.230469 142.980469 143.667969 C 142.980469 144.976562 142.917969 146.410156 142.746094 147.878906 C 141.992188 153.207031 139.820312 159.050781 130.75 160.910156 " fill-opacity="1" fill-rule="nonzero"/><path fill="#d0871f" d="M 147.773438 154.375 L 147.777344 154.371094 L 147.773438 154.375 C 147.84375 154.539062 149.761719 159.0625 150.40625 164.339844 C 150.90625 169.625 150.132812 175.667969 141.523438 179.027344 C 133.800781 171.167969 135.746094 164.546875 139.191406 160.433594 C 142.703125 156.226562 147.722656 154.535156 147.773438 154.375 " fill-opacity="1" fill-rule="nonzero"/><path fill="#e5b32d" d="M 141.0625 167.695312 C 140.570312 167.695312 140.058594 167.632812 139.546875 167.503906 C 136.957031 160.902344 144.496094 157.566406 145.890625 156.984375 C 146.53125 158.609375 146.585938 160.433594 146.363281 162.054688 C 146.085938 163.976562 145.265625 166.0625 143.425781 167.113281 C 142.726562 167.503906 141.917969 167.695312 141.0625 167.695312 " fill-opacity="1" fill-rule="nonzero"/><path fill="#a85a21" d="M 141.523438 179.027344 C 139.554688 177.101562 138.214844 175.167969 137.367188 173.332031 C 137.375 173.332031 137.386719 173.332031 137.394531 173.335938 C 138.242188 175.144531 139.574219 177.046875 141.523438 179.027344 " fill-opacity="1" fill-rule="nonzero"/><path fill="#c3881a" d="M 147.710938 154.417969 C 147.710938 154.414062 147.707031 154.410156 147.707031 154.398438 L 147.773438 154.375 C 147.769531 154.382812 147.75 154.398438 147.710938 154.417969 " fill-opacity="1" fill-rule="nonzero"/><path fill="#a85a21" d="M 141.523438 179.027344 C 139.574219 177.046875 138.242188 175.144531 137.394531 173.335938 C 138.023438 173.453125 138.65625 173.511719 139.269531 173.511719 C 140.738281 173.511719 142.101562 173.183594 143.074219 172.546875 C 146.109375 170.566406 147.589844 167.03125 148.113281 163.578125 C 148.546875 160.589844 148.636719 157.324219 147.710938 154.417969 C 147.75 154.398438 147.769531 154.382812 147.773438 154.375 L 147.777344 154.371094 L 147.773438 154.375 C 147.84375 154.539062 149.761719 159.0625 150.40625 164.339844 C 150.476562 165.101562 150.519531 165.875 150.519531 166.65625 C 150.519531 171.304688 148.898438 176.148438 141.523438 179.027344 " fill-opacity="1" fill-rule="nonzero"/><path fill="#c4951b" d="M 158.53125 171.753906 L 158.535156 171.753906 C 158.652344 171.890625 161.78125 175.875 163.914062 180.832031 C 165.894531 185.824219 166.875 191.792969 159.210938 196.710938 L 159.210938 196.707031 C 149.210938 190.640625 149.347656 183.890625 151.644531 179.257812 C 153.996094 174.523438 158.519531 171.917969 158.53125 171.753906 " fill-opacity="1" fill-rule="nonzero"/><path fill="#debd25" d="M 154.285156 186.003906 C 154.175781 186.003906 154.066406 186 153.957031 185.996094 C 149.539062 180.140625 156.148438 175.464844 157.371094 174.628906 C 158.457031 176.074219 159.015625 177.816406 159.238281 179.421875 C 159.496094 181.324219 159.261719 183.488281 157.722656 184.863281 C 156.863281 185.613281 155.644531 186.003906 154.285156 186.003906 " fill-opacity="1" fill-rule="nonzero"/><path fill="#a85a21" d="M 159.210938 196.707031 C 156.679688 195.238281 154.785156 193.640625 153.417969 192.03125 C 153.429688 192.03125 153.445312 192.03125 153.453125 192.03125 C 154.8125 193.605469 156.691406 195.179688 159.210938 196.707031 " fill-opacity="1" fill-rule="nonzero"/><path fill="#c3881a" d="M 158.480469 171.808594 C 158.480469 171.804688 158.476562 171.792969 158.472656 171.789062 L 158.53125 171.753906 C 158.53125 171.761719 158.515625 171.777344 158.480469 171.808594 " fill-opacity="1" fill-rule="nonzero"/><path fill="#9f6120" d="M 159.210938 196.710938 L 159.210938 196.707031 C 156.691406 195.179688 154.8125 193.605469 153.453125 192.03125 C 155.703125 192 157.78125 191.300781 158.90625 190.167969 C 161.382812 187.667969 161.855469 183.972656 161.414062 180.546875 C 161.007812 177.582031 160.191406 174.421875 158.480469 171.808594 C 158.515625 171.777344 158.53125 171.761719 158.53125 171.753906 L 158.535156 171.753906 C 158.652344 171.890625 161.78125 175.875 163.914062 180.832031 C 164.695312 182.804688 165.320312 184.925781 165.320312 187.074219 C 165.320312 190.371094 163.855469 193.734375 159.210938 196.710938 " fill-opacity="1" fill-rule="nonzero"/><path fill="#d0871f" d="M 114.679688 79.835938 C 114.621094 79.789062 111.34375 87.136719 111.558594 93.914062 C 111.589844 100.734375 115.109375 106.984375 124.269531 105.675781 C 128.171875 95.566406 126.285156 89.40625 122.890625 85.414062 C 119.578125 81.484375 114.746094 79.734375 114.679688 79.835938 " fill-opacity="1" fill-rule="nonzero"/><path fill="#e5b32d" d="M 119.785156 94.421875 C 119.496094 94.421875 119.210938 94.390625 118.9375 94.324219 C 116.9375 93.847656 115.820312 91.71875 115.480469 89.425781 C 115.191406 87.503906 115.328125 85.125 116.234375 82.824219 C 117.773438 83.214844 124.6875 85.667969 122.859375 93.417969 C 121.832031 94.054688 120.765625 94.421875 119.785156 94.421875 " fill-opacity="1" fill-rule="nonzero"/><path fill="#a85a21" d="M 121.925781 105.851562 C 114.503906 105.847656 111.585938 100.113281 111.558594 93.914062 C 111.550781 93.695312 111.550781 93.476562 111.550781 93.257812 C 111.550781 86.691406 114.605469 79.835938 114.679688 79.835938 L 114.746094 79.855469 C 113.105469 84.082031 113.046875 88.457031 113.777344 91.972656 C 114.605469 96.078125 117.027344 99.324219 120.511719 100.054688 C 120.808594 100.117188 121.121094 100.148438 121.453125 100.148438 C 122.894531 100.148438 124.605469 99.570312 126.179688 98.644531 C 125.863281 100.722656 125.238281 103.035156 124.269531 105.675781 C 124.242188 105.679688 124.210938 105.683594 124.183594 105.6875 C 123.386719 105.796875 122.636719 105.851562 121.925781 105.851562 " fill-opacity="1" fill-rule="nonzero"/><path fill="#c4951b" d="M 105.9375 106.617188 L 105.9375 106.621094 C 105.875 106.582031 104.597656 114.070312 106.589844 120.410156 C 108.410156 126.816406 113.503906 132.074219 122.265625 129.089844 L 122.265625 129.085938 C 123.53125 118.789062 120.007812 113.382812 115.574219 110.289062 C 111.234375 107.238281 105.980469 106.511719 105.9375 106.617188 " fill-opacity="1" fill-rule="nonzero"/><path fill="#debd25" d="M 114.15625 119.398438 C 114.109375 119.398438 114.070312 119.398438 114.023438 119.398438 C 111.910156 119.328125 110.238281 117.539062 109.296875 115.445312 C 108.5 113.695312 108.003906 111.441406 108.277344 109.121094 C 109.90625 109.195312 117.4375 110.175781 117.671875 117.800781 C 116.609375 118.789062 115.378906 119.398438 114.15625 119.398438 " fill-opacity="1" fill-rule="nonzero"/><path fill="#9f6120" d="M 117.492188 129.953125 C 117.492188 129.953125 117.492188 129.953125 117.488281 129.953125 C 111.613281 129.949219 108.050781 125.550781 106.589844 120.410156 C 105.726562 117.660156 105.476562 114.699219 105.476562 112.222656 C 105.476562 109.003906 105.894531 106.617188 105.9375 106.617188 C 105.9375 106.617188 105.9375 106.617188 105.9375 106.621094 L 105.9375 106.617188 L 106.007812 106.625 C 105.523438 110.882812 106.632812 114.996094 108.28125 118.167969 C 110.183594 121.871094 113.433594 124.464844 117.078125 124.496094 C 117.09375 124.496094 117.113281 124.496094 117.125 124.496094 C 118.785156 124.496094 120.730469 123.511719 122.34375 122.089844 C 122.566406 124.109375 122.550781 126.40625 122.265625 129.085938 L 122.265625 129.089844 C 122.246094 129.097656 122.226562 129.105469 122.199219 129.113281 C 120.492188 129.6875 118.921875 129.953125 117.492188 129.953125 " fill-opacity="1" fill-rule="nonzero"/><path fill="#d0871f" d="M 104.117188 129.875 L 104.117188 129.882812 C 104.050781 129.851562 104.445312 137.226562 107.832031 142.996094 C 111.0625 148.847656 117.285156 153.089844 125.371094 148.757812 L 125.367188 148.757812 C 124.367188 138.625 119.660156 134.023438 114.550781 131.800781 C 109.539062 129.601562 104.136719 129.769531 104.117188 129.875 " fill-opacity="1" fill-rule="nonzero"/><path fill="#e5b32d" d="M 114.488281 140.828125 C 112.554688 140.828125 110.71875 139.476562 109.433594 137.78125 C 108.253906 136.238281 107.253906 134.152344 107.015625 131.882812 C 107.300781 131.851562 107.773438 131.8125 108.371094 131.8125 C 111.179688 131.8125 116.71875 132.648438 118.304688 138.65625 C 117.429688 139.824219 116.289062 140.628906 115.019531 140.792969 C 114.839844 140.816406 114.664062 140.828125 114.488281 140.828125 " fill-opacity="1" fill-rule="nonzero"/><path fill="#a85a21" d="M 118.917969 150.535156 C 113.972656 150.535156 110.140625 147.175781 107.832031 142.996094 C 104.65625 137.585938 104.113281 130.765625 104.113281 129.960938 C 104.113281 129.910156 104.113281 129.882812 104.117188 129.882812 L 104.117188 129.875 L 104.1875 129.871094 C 104.667969 134.023438 106.675781 137.789062 109.023438 140.558594 C 111.417969 143.425781 114.667969 145.289062 117.902344 145.289062 C 118.332031 145.289062 118.757812 145.253906 119.1875 145.1875 C 120.855469 144.933594 122.597656 143.660156 123.90625 142.007812 C 124.574219 143.914062 125.0625 146.125 125.367188 148.757812 L 125.371094 148.757812 C 125.347656 148.769531 125.328125 148.78125 125.3125 148.789062 C 123.019531 150.003906 120.882812 150.535156 118.917969 150.535156 " fill-opacity="1" fill-rule="nonzero"/><path fill="#c4951b" d="M 108.421875 155.957031 L 108.425781 155.957031 C 108.347656 155.9375 110.601562 162.921875 115.433594 167.8125 C 120.132812 172.8125 127.40625 175.722656 134.328125 170.019531 C 130.742188 160.464844 124.90625 156.964844 119.265625 155.804688 C 113.738281 154.660156 108.410156 155.847656 108.421875 155.957031 " fill-opacity="1" fill-rule="nonzero"/><path fill="#debd25" d="M 120.628906 164.542969 C 118.945312 164.542969 117.152344 163.683594 115.703125 162.507812 C 114.136719 161.25 112.617188 159.445312 111.808594 157.324219 C 112.429688 157.125 113.992188 156.730469 115.890625 156.730469 C 118.789062 156.730469 122.464844 157.65625 124.734375 161.660156 C 124.160156 162.941406 123.234375 163.929688 122.011719 164.332031 C 121.566406 164.476562 121.101562 164.542969 120.628906 164.542969 " fill-opacity="1" fill-rule="nonzero"/><path fill="#9f6120" d="M 126.28125 173.144531 C 122.144531 173.144531 118.308594 170.871094 115.433594 167.8125 C 110.683594 162.996094 108.425781 156.160156 108.421875 155.960938 C 108.421875 155.960938 108.421875 155.957031 108.425781 155.957031 L 108.421875 155.957031 L 108.492188 155.933594 C 110.011719 159.816406 112.964844 163.035156 115.996094 165.25 C 118.550781 167.132812 121.515625 168.261719 124.273438 168.261719 C 125.316406 168.261719 126.324219 168.101562 127.273438 167.761719 C 128.863281 167.195312 130.269531 165.640625 131.152344 163.808594 C 132.300781 165.511719 133.351562 167.546875 134.328125 170.019531 C 134.3125 170.035156 134.292969 170.046875 134.273438 170.0625 C 131.601562 172.246094 128.882812 173.148438 126.28125 173.144531 " fill-opacity="1" fill-rule="nonzero"/><path fill="#d0871f" d="M 117.484375 177.03125 L 117.480469 177.03125 L 117.484375 177.03125 C 117.410156 177.027344 121.207031 183.425781 127.144531 187.390625 C 132.972656 191.480469 140.949219 193.128906 146.558594 186.449219 L 146.554688 186.449219 C 140.75 177.742188 134.152344 175.308594 128.265625 175.101562 C 122.5 174.898438 117.441406 176.925781 117.484375 177.03125 " fill-opacity="1" fill-rule="nonzero"/><path fill="#e5b32d" d="M 130.683594 183.441406 C 129.222656 183.441406 127.628906 182.9375 126.214844 182.195312 C 124.367188 181.226562 122.445312 179.726562 121.164062 177.800781 C 121.941406 177.410156 124.339844 176.382812 127.203125 176.382812 C 129.71875 176.382812 132.59375 177.171875 135.042969 179.890625 C 134.765625 181.230469 134.0625 182.34375 132.933594 182.933594 C 132.257812 183.285156 131.492188 183.441406 130.683594 183.441406 " fill-opacity="1" fill-rule="nonzero"/><path fill="#a85a21" d="M 137.269531 190.960938 C 133.734375 190.960938 130.15625 189.503906 127.144531 187.390625 C 121.269531 183.46875 117.488281 177.15625 117.484375 177.035156 C 117.484375 177.03125 117.484375 177.03125 117.484375 177.03125 L 117.480469 177.03125 L 117.484375 177.03125 L 117.550781 177 C 119.925781 180.511719 123.597656 183.15625 127.128906 184.8125 C 129.457031 185.910156 131.9375 186.53125 134.230469 186.53125 C 135.96875 186.53125 137.597656 186.175781 138.972656 185.40625 C 140.433594 184.597656 141.484375 182.859375 141.945312 180.929688 C 143.484375 182.398438 145.003906 184.203125 146.554688 186.449219 L 146.558594 186.449219 C 146.535156 186.472656 146.519531 186.492188 146.503906 186.515625 C 143.796875 189.699219 140.554688 190.960938 137.269531 190.960938 " fill-opacity="1" fill-rule="nonzero"/><path fill="#c4951b" d="M 133.894531 198.75 C 133.820312 198.761719 139.328125 204.226562 146.398438 206.9375 C 153.375 209.789062 161.917969 209.882812 165.660156 202.382812 C 157.328125 195.058594 150.089844 193.953125 144.148438 194.863281 C 138.335938 195.75 133.820312 198.660156 133.894531 198.75 " fill-opacity="1" fill-rule="nonzero"/><path fill="#debd25" d="M 147.375 202.585938 C 146.285156 202.585938 145.128906 202.402344 144.023438 202.09375 C 141.910156 201.511719 139.585938 200.421875 137.777344 198.804688 C 138.613281 198.152344 141.664062 196.089844 145.605469 196.089844 C 147.640625 196.089844 149.910156 196.636719 152.238281 198.207031 C 152.328125 199.554688 151.933594 200.765625 150.964844 201.546875 C 150.054688 202.28125 148.769531 202.585938 147.375 202.585938 " fill-opacity="1" fill-rule="nonzero"/><path fill="#9f6120" d="M 154.816406 208.730469 C 152.023438 208.730469 149.097656 208.039062 146.398438 206.9375 C 139.375 204.246094 133.890625 198.835938 133.894531 198.757812 L 133.894531 198.75 L 133.953125 198.714844 C 137.273438 201.652344 141.667969 203.515625 145.664062 204.449219 C 147.269531 204.828125 148.878906 205.027344 150.410156 205.027344 C 153.324219 205.027344 155.953125 204.316406 157.726562 202.800781 C 158.964844 201.742188 159.53125 199.863281 159.457031 197.917969 C 161.414062 199.042969 163.449219 200.503906 165.660156 202.382812 C 165.644531 202.414062 165.625 202.445312 165.613281 202.476562 C 163.304688 207.011719 159.226562 208.730469 154.816406 208.730469 " fill-opacity="1" fill-rule="nonzero"/><path fill="#c79326" d="M 219.453125 51.179688 L 219.453125 51.175781 L 219.460938 51.175781 C 219.453125 51.234375 226.304688 52.855469 232.429688 57.640625 C 238.515625 62.246094 243.882812 70.015625 240.183594 78.324219 L 240.179688 78.324219 C 230.398438 74.984375 226.21875 68.933594 223.394531 62.941406 C 220.738281 57.070312 219.4375 51.25 219.453125 51.179688 " fill-opacity="1" fill-rule="nonzero"/><path fill="#e1bc47" d="M 230.21875 68.519531 C 223.371094 64.84375 222.464844 56.59375 222.082031 54.785156 C 224.230469 55.503906 226.378906 56.996094 228.054688 58.601562 C 230.054688 60.503906 231.785156 63.070312 231.824219 65.371094 C 231.855469 66.742188 231.230469 67.832031 230.21875 68.519531 " fill-opacity="1" fill-rule="nonzero"/><path fill="#a26021" d="M 240.078125 78.292969 C 237.613281 77.433594 235.519531 76.417969 233.714844 75.28125 C 235.25 74.269531 236.335938 72.617188 236.410156 70.820312 C 236.59375 66.882812 234.078125 62.21875 230.5 58.617188 C 227.445312 55.507812 223.433594 52.601562 219.472656 51.253906 L 219.453125 51.179688 L 219.453125 51.175781 L 219.460938 51.175781 C 219.453125 51.234375 226.304688 52.855469 232.429688 57.640625 C 235.558594 60.011719 238.5 63.21875 240.113281 66.902344 C 239.445312 69.59375 239.46875 72.804688 240.703125 76.644531 C 240.46875 76.222656 240.230469 75.800781 239.988281 75.382812 C 239.867188 75.164062 239.640625 75.046875 239.40625 75.046875 C 239.296875 75.046875 239.179688 75.070312 239.074219 75.132812 C 238.757812 75.320312 238.644531 75.722656 238.828125 76.046875 C 239.253906 76.789062 239.671875 77.539062 240.078125 78.292969 " fill-opacity="1" fill-rule="nonzero"/><path fill="#c4951b" d="M 247.851562 56.703125 L 247.851562 56.699219 L 247.851562 56.703125 C 247.90625 56.648438 252.875 63.570312 254.242188 70.496094 C 255.816406 77.4375 253.785156 84.386719 244.628906 84.722656 L 244.632812 84.71875 C 238.570312 75.179688 238.894531 68.550781 241.234375 63.871094 C 243.496094 59.265625 247.761719 56.617188 247.851562 56.703125 " fill-opacity="1" fill-rule="nonzero"/><path fill="#debd25" d="M 245.644531 72.558594 C 244.875 72.558594 244.03125 72.371094 243.171875 72.023438 C 239.566406 64.460938 245.664062 60.703125 247.070312 60.03125 C 248.507812 62.21875 249.210938 64.621094 249.386719 66.632812 C 249.605469 69.035156 249.011719 71.394531 247.1875 72.246094 C 246.726562 72.457031 246.203125 72.558594 245.644531 72.558594 " fill-opacity="1" fill-rule="nonzero"/><path fill="#9f6120" d="M 244.730469 84.71875 C 243.738281 82.476562 242.644531 80.253906 241.46875 78.042969 C 242.679688 78.46875 243.898438 78.707031 244.984375 78.707031 C 245.734375 78.707031 246.421875 78.59375 246.992188 78.347656 C 250.195312 76.980469 251.804688 73.25 251.644531 68.925781 C 251.523438 65.214844 250.421875 60.761719 247.789062 56.734375 L 247.851562 56.703125 L 247.851562 56.699219 L 247.851562 56.703125 C 247.941406 56.703125 252.886719 63.59375 254.242188 70.496094 C 254.558594 71.882812 254.730469 73.261719 254.730469 74.59375 C 254.722656 79.921875 251.984375 84.414062 244.730469 84.71875 " fill-opacity="1" fill-rule="nonzero"/><path fill="#d0871f" d="M 220.9375 78.824219 L 220.9375 78.828125 L 220.941406 78.828125 C 221.058594 78.992188 224.101562 83.667969 228.429688 87.910156 C 232.875 92.078125 238.617188 95.816406 246.679688 92.386719 C 244.296875 81.558594 237.144531 78.011719 231.421875 77.371094 C 228.152344 76.992188 225.328125 77.515625 223.4375 78.03125 C 221.933594 78.449219 221.019531 78.863281 220.9375 78.824219 " fill-opacity="1" fill-rule="nonzero"/><path fill="#e5b32d" d="M 233.824219 85.277344 C 232.109375 85.277344 230.273438 84.46875 228.738281 83.484375 C 227.148438 82.460938 225.53125 81.089844 224.414062 79.445312 C 225.042969 79.191406 227.066406 78.4375 229.492188 78.4375 C 232.144531 78.4375 235.28125 79.335938 237.601562 82.773438 C 237.101562 83.980469 236.1875 84.84375 234.984375 85.140625 C 234.605469 85.238281 234.21875 85.277344 233.824219 85.277344 " fill-opacity="1" fill-rule="nonzero"/><path fill="#c3881a" d="M 220.957031 78.828125 C 220.949219 78.828125 220.941406 78.828125 220.9375 78.824219 L 221.007812 78.800781 C 221.011719 78.804688 221.015625 78.808594 221.019531 78.816406 C 220.988281 78.824219 220.96875 78.828125 220.957031 78.828125 " fill-opacity="1" fill-rule="nonzero"/><path fill="#a85a21" d="M 240.539062 93.730469 C 235.558594 93.730469 231.65625 90.933594 228.429688 87.910156 C 224.101562 83.667969 221.058594 78.992188 220.941406 78.828125 L 220.9375 78.828125 L 220.9375 78.824219 C 220.941406 78.828125 220.949219 78.828125 220.957031 78.828125 C 220.96875 78.828125 220.988281 78.824219 221.019531 78.816406 C 223.15625 81.59375 226.152344 83.921875 229.085938 85.792969 C 231.953125 87.597656 235.246094 88.964844 238.332031 88.964844 C 238.910156 88.964844 239.476562 88.921875 240.03125 88.820312 C 241.5 88.546875 242.90625 87.472656 243.816406 85.960938 C 244.761719 88.128906 245.621094 90.3125 246.390625 92.507812 C 244.433594 93.300781 242.621094 93.675781 240.925781 93.726562 C 240.796875 93.730469 240.667969 93.730469 240.539062 93.730469 " fill-opacity="1" fill-rule="nonzero"/><path fill="#d0871f" d="M 238.828125 76.046875 C 247.484375 91.128906 251.628906 107.164062 251.628906 122.871094 C 251.621094 163.078125 224.484375 201.179688 175.878906 215.570312 C 175.523438 215.671875 175.316406 216.046875 175.425781 216.402344 C 175.53125 216.753906 175.898438 216.957031 176.253906 216.851562 C 225.359375 202.339844 252.972656 163.691406 252.964844 122.871094 C 252.96875 106.929688 248.753906 90.65625 239.988281 75.382812 C 239.804688 75.058594 239.398438 74.949219 239.074219 75.132812 C 238.757812 75.320312 238.644531 75.722656 238.828125 76.046875 " fill-opacity="1" fill-rule="nonzero"/><path fill="#c4951b" d="M 230.214844 98.71875 C 230.277344 98.898438 231.910156 103.824219 234.988281 108.644531 C 238.183594 113.410156 242.835938 118.074219 251.703125 116.414062 C 252.316406 105.746094 246.324219 101.070312 240.898438 99.371094 C 237.058594 98.15625 233.5 98.363281 231.613281 98.566406 C 230.769531 98.660156 230.261719 98.75 230.214844 98.71875 " fill-opacity="1" fill-rule="nonzero"/><path fill="#debd25" d="M 242.023438 107.328125 C 239.964844 107.328125 238 106.019531 236.53125 104.5625 C 235.253906 103.296875 234.058594 101.703125 233.4375 99.964844 C 233.859375 99.890625 234.820312 99.75 236.039062 99.75 C 239.058594 99.75 243.644531 100.621094 245.429688 105.613281 C 244.605469 106.648438 243.460938 107.273438 242.195312 107.324219 C 242.140625 107.328125 242.082031 107.328125 242.023438 107.328125 " fill-opacity="1" fill-rule="nonzero"/><path fill="#a85a21" d="M 251.402344 116.46875 C 251.5 116.449219 251.601562 116.433594 251.703125 116.414062 C 251.855469 113.722656 251.59375 111.417969 251.019531 109.4375 C 251.023438 109.433594 251.03125 109.425781 251.035156 109.421875 C 251.628906 111.425781 251.910156 113.761719 251.703125 116.414062 C 251.601562 116.433594 251.5 116.449219 251.402344 116.46875 " fill-opacity="1" fill-rule="nonzero"/><path fill="#c3881a" d="M 230.265625 98.726562 C 230.242188 98.726562 230.226562 98.722656 230.214844 98.71875 L 230.289062 98.703125 C 230.289062 98.714844 230.292969 98.71875 230.296875 98.726562 C 230.285156 98.726562 230.273438 98.726562 230.265625 98.726562 " fill-opacity="1" fill-rule="nonzero"/><path fill="#9f6120" d="M 248.195312 116.753906 C 241.550781 116.753906 237.734375 112.738281 234.988281 108.644531 C 231.910156 103.824219 230.277344 98.898438 230.214844 98.71875 C 230.226562 98.722656 230.242188 98.726562 230.265625 98.726562 C 230.273438 98.726562 230.285156 98.726562 230.296875 98.726562 C 231.582031 101.71875 233.867188 104.472656 236.222656 106.789062 C 238.957031 109.453125 242.476562 111.671875 246.140625 111.753906 C 246.171875 111.753906 246.199219 111.753906 246.230469 111.753906 C 247.867188 111.753906 249.679688 110.875 251.019531 109.4375 C 251.59375 111.417969 251.855469 113.722656 251.703125 116.414062 C 251.601562 116.433594 251.5 116.449219 251.402344 116.46875 C 250.261719 116.664062 249.199219 116.753906 248.195312 116.753906 " fill-opacity="1" fill-rule="nonzero"/><path fill="#d0871f" d="M 233.636719 116.675781 C 233.652344 116.855469 234.085938 121.835938 236.007812 126.996094 C 238.054688 132.117188 241.589844 137.417969 250.75 137.363281 L 250.75 137.355469 C 253.828125 127.195312 249.011719 121.707031 244.046875 119.140625 C 238.976562 116.507812 233.753906 116.804688 233.636719 116.675781 " fill-opacity="1" fill-rule="nonzero"/><path fill="#e5b32d" d="M 244.03125 127.015625 C 243.835938 127.015625 243.644531 127.003906 243.453125 126.976562 C 241.339844 126.683594 239.640625 125.042969 238.496094 123.351562 C 237.527344 121.917969 236.726562 120.1875 236.523438 118.417969 C 238.023438 118.441406 246.230469 118.75 247.058594 125.894531 C 246.15625 126.617188 245.101562 127.015625 244.03125 127.015625 " fill-opacity="1" fill-rule="nonzero"/><path fill="#a85a21" d="M 250.75 137.355469 C 251.527344 134.792969 251.796875 132.527344 251.699219 130.535156 C 251.703125 130.527344 251.710938 130.523438 251.714844 130.519531 C 251.835938 132.546875 251.566406 134.84375 250.75 137.355469 " fill-opacity="1" fill-rule="nonzero"/><path fill="#c68d1b" d="M 233.710938 116.691406 C 233.667969 116.6875 233.644531 116.679688 233.636719 116.675781 L 233.707031 116.675781 C 233.707031 116.679688 233.710938 116.6875 233.710938 116.691406 " fill-opacity="1" fill-rule="nonzero"/><path fill="#a85a21" d="M 250.589844 137.363281 C 241.546875 137.363281 238.046875 132.089844 236.007812 126.996094 C 234.085938 121.835938 233.652344 116.855469 233.636719 116.675781 C 233.644531 116.679688 233.667969 116.6875 233.710938 116.691406 C 234.269531 119.769531 235.878906 122.796875 237.667969 125.429688 C 239.75 128.460938 242.71875 131.199219 246.324219 131.914062 C 246.640625 131.976562 246.96875 132.003906 247.308594 132.003906 C 248.734375 132.003906 250.328125 131.476562 251.699219 130.535156 C 251.796875 132.527344 251.527344 134.792969 250.75 137.355469 L 250.75 137.363281 C 250.695312 137.363281 250.640625 137.363281 250.589844 137.363281 " fill-opacity="1" fill-rule="nonzero"/><path fill="#c4951b" d="M 232.355469 136.902344 C 232.324219 137.078125 231.453125 141.921875 231.992188 147.253906 C 232.671875 152.578125 234.757812 158.386719 243.804688 160.121094 C 249.507812 150.941406 246.195312 144.742188 241.972656 141.308594 C 237.664062 137.796875 232.441406 137.050781 232.355469 136.902344 " fill-opacity="1" fill-rule="nonzero"/><path fill="#debd25" d="M 240.789062 148.941406 C 240.292969 148.941406 239.804688 148.859375 239.339844 148.703125 C 237.328125 148.003906 236.082031 146.097656 235.394531 144.246094 C 234.820312 142.683594 234.480469 140.871094 234.75 139.136719 C 236.21875 139.457031 244.222656 141.363281 243.167969 148.371094 C 242.394531 148.742188 241.578125 148.941406 240.789062 148.941406 " fill-opacity="1" fill-rule="nonzero"/><path fill="#a85a21" d="M 243.804688 160.121094 C 245.242188 157.804688 246.109375 155.679688 246.53125 153.738281 C 246.535156 153.734375 246.542969 153.734375 246.550781 153.730469 C 246.136719 155.703125 245.273438 157.859375 243.804688 160.121094 " fill-opacity="1" fill-rule="nonzero"/><path fill="#c68d1b" d="M 232.429688 136.933594 C 232.386719 136.921875 232.359375 136.910156 232.355469 136.902344 L 232.429688 136.917969 C 232.429688 136.921875 232.429688 136.925781 232.429688 136.933594 " fill-opacity="1" fill-rule="nonzero"/><path fill="#9f6120" d="M 243.804688 160.121094 C 242.796875 159.929688 241.875 159.6875 241.03125 159.398438 C 234.308594 157.097656 232.59375 151.984375 231.992188 147.253906 C 231.863281 145.996094 231.816406 144.761719 231.816406 143.613281 C 231.816406 139.890625 232.332031 137.035156 232.355469 136.902344 C 232.359375 136.910156 232.386719 136.921875 232.429688 136.933594 C 232.167969 139.988281 232.964844 143.199219 234.039062 146.078125 C 235.296875 149.394531 237.503906 152.613281 240.875 154.011719 C 241.535156 154.285156 242.3125 154.417969 243.140625 154.417969 C 244.230469 154.417969 245.40625 154.1875 246.53125 153.738281 C 246.109375 155.679688 245.242188 157.804688 243.804688 160.121094 " fill-opacity="1" fill-rule="nonzero"/><path fill="#d0871f" d="M 226.871094 153.824219 L 226.867188 153.824219 L 226.871094 153.824219 C 226.796875 153.988281 224.820312 158.539062 224.101562 163.824219 C 223.523438 169.117188 224.203125 175.148438 232.765625 178.394531 L 232.765625 178.390625 C 240.605469 170.421875 238.757812 163.824219 235.371094 159.761719 C 231.914062 155.609375 226.921875 153.976562 226.871094 153.824219 " fill-opacity="1" fill-rule="nonzero"/><path fill="#e5b32d" d="M 233.3125 167.058594 C 232.488281 167.054688 231.707031 166.871094 231.035156 166.496094 C 229.214844 165.472656 228.421875 163.402344 228.171875 161.484375 C 227.972656 159.867188 228.054688 158.042969 228.71875 156.40625 C 230.105469 156.96875 237.59375 160.195312 234.910156 166.839844 C 234.371094 166.980469 233.832031 167.058594 233.3125 167.058594 " fill-opacity="1" fill-rule="nonzero"/><path fill="#a85a21" d="M 232.765625 178.394531 C 232.667969 178.355469 232.566406 178.3125 232.464844 178.277344 C 232.566406 178.3125 232.667969 178.355469 232.765625 178.394531 L 232.765625 178.390625 C 234.746094 176.382812 236.101562 174.457031 236.980469 172.640625 C 236.988281 172.640625 236.996094 172.640625 237.007812 172.636719 C 236.132812 174.484375 234.765625 176.4375 232.765625 178.390625 L 232.765625 178.394531 " fill-opacity="1" fill-rule="nonzero"/><path fill="#c68d1b" d="M 226.929688 153.863281 C 226.898438 153.84375 226.875 153.832031 226.871094 153.824219 L 226.9375 153.847656 C 226.933594 153.855469 226.933594 153.859375 226.929688 153.863281 " fill-opacity="1" fill-rule="nonzero"/><path fill="#a85a21" d="M 232.765625 178.394531 C 232.667969 178.355469 232.566406 178.3125 232.464844 178.277344 C 225.539062 175.535156 223.949219 170.925781 223.945312 166.425781 C 223.945312 165.550781 224.003906 164.679688 224.101562 163.824219 C 224.820312 158.539062 226.796875 153.988281 226.871094 153.824219 L 226.867188 153.824219 L 226.871094 153.824219 C 226.875 153.832031 226.898438 153.84375 226.929688 153.863281 C 225.96875 156.78125 226.011719 160.046875 226.398438 163.03125 C 226.871094 166.480469 228.300781 169.988281 231.3125 171.933594 C 232.25 172.53125 233.546875 172.84375 234.964844 172.84375 C 235.621094 172.84375 236.300781 172.777344 236.980469 172.640625 C 236.101562 174.457031 234.746094 176.382812 232.765625 178.390625 L 232.765625 178.394531 " fill-opacity="1" fill-rule="nonzero"/><path fill="#c4951b" d="M 215.863281 171.351562 C 215.742188 171.492188 212.554688 175.519531 210.351562 180.507812 C 208.300781 185.53125 207.230469 191.515625 214.828125 196.324219 C 224.910156 190.113281 224.878906 183.359375 222.640625 178.765625 C 220.359375 174.066406 215.875 171.515625 215.863281 171.351562 " fill-opacity="1" fill-rule="nonzero"/><path fill="#debd25" d="M 219.796875 185.542969 C 218.484375 185.542969 217.308594 185.175781 216.488281 184.449219 C 214.964844 183.101562 214.765625 180.9375 215.042969 179.03125 C 215.296875 177.421875 215.878906 175.671875 216.988281 174.214844 C 218.195312 175.03125 224.734375 179.617188 220.234375 185.53125 C 220.085938 185.539062 219.945312 185.542969 219.796875 185.542969 " fill-opacity="1" fill-rule="nonzero"/><path fill="#a85a21" d="M 214.828125 196.324219 C 214.726562 196.261719 214.632812 196.203125 214.539062 196.136719 C 214.632812 196.203125 214.726562 196.261719 214.828125 196.324219 C 217.371094 194.753906 219.269531 193.15625 220.65625 191.5625 C 220.65625 191.5625 220.660156 191.5625 220.660156 191.5625 C 220.667969 191.5625 220.675781 191.5625 220.683594 191.5625 C 219.296875 193.191406 217.382812 194.8125 214.828125 196.324219 " fill-opacity="1" fill-rule="nonzero"/><path fill="#c3881a" d="M 215.910156 171.40625 C 215.878906 171.378906 215.863281 171.359375 215.863281 171.351562 L 215.921875 171.390625 C 215.917969 171.394531 215.914062 171.402344 215.910156 171.40625 " fill-opacity="1" fill-rule="nonzero"/><path fill="#9f6120" d="M 214.828125 196.324219 C 214.726562 196.261719 214.632812 196.203125 214.539062 196.136719 C 210.234375 193.316406 208.851562 190.105469 208.851562 186.929688 C 208.851562 184.726562 209.519531 182.539062 210.351562 180.507812 C 212.554688 175.519531 215.742188 171.492188 215.863281 171.351562 C 215.863281 171.359375 215.878906 171.378906 215.910156 171.40625 C 214.167969 174.042969 213.304688 177.214844 212.859375 180.1875 C 212.367188 183.621094 212.785156 187.308594 215.222656 189.773438 C 216.335938 190.890625 218.40625 191.5625 220.65625 191.5625 C 219.269531 193.15625 217.371094 194.753906 214.828125 196.324219 " fill-opacity="1" fill-rule="nonzero"/><path fill="#d0871f" d="M 261.039062 78.8125 L 261.039062 78.808594 L 261.039062 78.8125 C 261.097656 78.769531 264.269531 86.070312 263.957031 92.851562 C 263.832031 99.671875 260.21875 105.972656 251.074219 104.789062 C 247.324219 94.734375 249.289062 88.542969 252.746094 84.507812 C 256.117188 80.53125 260.96875 78.714844 261.039062 78.8125 " fill-opacity="1" fill-rule="nonzero"/><path fill="#e5b32d" d="M 255.667969 93.472656 C 254.703125 93.472656 253.664062 93.121094 252.660156 92.511719 C 250.945312 84.785156 257.898438 82.234375 259.441406 81.824219 C 260.3125 84.113281 260.414062 86.488281 260.097656 88.414062 C 259.730469 90.714844 258.578125 92.859375 256.566406 93.363281 C 256.28125 93.441406 255.980469 93.472656 255.667969 93.472656 " fill-opacity="1" fill-rule="nonzero"/><path fill="#a85a21" d="M 253.214844 104.933594 C 252.5625 104.933594 251.878906 104.890625 251.160156 104.800781 C 251.128906 104.796875 251.105469 104.792969 251.074219 104.789062 C 250.140625 102.164062 249.554688 99.863281 249.261719 97.789062 C 250.804688 98.671875 252.476562 99.222656 253.898438 99.222656 C 254.257812 99.222656 254.59375 99.191406 254.917969 99.113281 C 258.40625 98.335938 260.878906 95.058594 261.765625 90.945312 C 262.542969 87.414062 262.550781 83.039062 260.96875 78.835938 L 261.039062 78.8125 L 261.039062 78.808594 L 261.039062 78.8125 C 261.113281 78.8125 263.980469 85.421875 263.976562 91.898438 C 263.976562 92.214844 263.972656 92.53125 263.957031 92.851562 C 263.839844 99.109375 260.785156 104.933594 253.214844 104.933594 " fill-opacity="1" fill-rule="nonzero"/><path fill="#c4951b" d="M 269.398438 105.472656 L 269.398438 105.480469 C 269.460938 105.4375 270.628906 112.910156 268.546875 119.28125 C 266.632812 125.710938 261.464844 131.042969 252.738281 128.179688 L 252.742188 128.179688 C 251.625 117.894531 255.226562 112.4375 259.707031 109.28125 C 264.089844 106.171875 269.355469 105.371094 269.398438 105.472656 " fill-opacity="1" fill-rule="nonzero"/><path fill="#debd25" d="M 260.941406 118.375 C 259.738281 118.375 258.539062 117.785156 257.496094 116.828125 C 257.84375 109.191406 265.394531 108.113281 267.015625 108.011719 C 267.261719 110.328125 266.730469 112.589844 265.90625 114.351562 C 264.9375 116.457031 263.242188 118.269531 261.128906 118.371094 C 261.066406 118.375 261.003906 118.375 260.941406 118.375 " fill-opacity="1" fill-rule="nonzero"/><path fill="#9f6120" d="M 257.339844 128.972656 C 255.953125 128.972656 254.445312 128.730469 252.808594 128.199219 C 252.789062 128.191406 252.761719 128.1875 252.738281 128.179688 L 252.742188 128.179688 C 252.496094 125.503906 252.511719 123.203125 252.769531 121.179688 C 254.34375 122.5625 256.246094 123.511719 257.894531 123.511719 C 257.925781 123.511719 257.960938 123.511719 257.992188 123.511719 C 261.644531 123.433594 264.929688 120.785156 266.886719 117.0625 C 268.582031 113.871094 269.75 109.734375 269.328125 105.484375 L 269.398438 105.472656 L 269.398438 105.480469 C 269.4375 105.480469 269.78125 107.59375 269.78125 110.535156 C 269.78125 113.109375 269.515625 116.3125 268.546875 119.28125 C 266.996094 124.488281 263.316406 128.972656 257.339844 128.972656 " fill-opacity="1" fill-rule="nonzero"/><path fill="#d0871f" d="M 270.882812 128.714844 C 270.949219 128.683594 270.449219 136.070312 266.984375 141.886719 C 263.667969 147.78125 257.382812 152.113281 249.359375 147.894531 C 250.507812 137.738281 255.285156 133.078125 260.421875 130.78125 C 265.464844 128.507812 270.867188 128.605469 270.882812 128.714844 " fill-opacity="1" fill-rule="nonzero"/><path fill="#e5b32d" d="M 260.300781 139.8125 C 260.144531 139.8125 259.984375 139.800781 259.824219 139.78125 C 258.558594 139.636719 257.425781 138.847656 256.566406 137.6875 C 258.28125 131.515625 264.054688 130.707031 266.796875 130.707031 C 267.304688 130.707031 267.707031 130.734375 267.957031 130.761719 C 267.683594 133.035156 266.65625 135.128906 265.453125 136.691406 C 264.132812 138.421875 262.253906 139.8125 260.300781 139.8125 " fill-opacity="1" fill-rule="nonzero"/><path fill="#a85a21" d="M 255.632812 149.578125 C 253.710938 149.578125 251.636719 149.078125 249.421875 147.925781 C 249.402344 147.914062 249.382812 147.90625 249.359375 147.894531 C 249.703125 145.261719 250.222656 143.035156 250.914062 141.121094 C 252.203125 142.75 253.929688 144.003906 255.589844 144.234375 C 255.980469 144.292969 256.367188 144.320312 256.757812 144.320312 C 260.03125 144.320312 263.359375 142.398438 265.828125 139.46875 C 268.207031 136.664062 270.277344 132.871094 270.8125 128.710938 L 270.882812 128.714844 C 270.882812 128.714844 270.886719 128.734375 270.886719 128.773438 C 270.886719 129.457031 270.265625 136.378906 266.984375 141.886719 C 264.589844 146.140625 260.652344 149.578125 255.632812 149.578125 " fill-opacity="1" fill-rule="nonzero"/><path fill="#c4951b" d="M 266.203125 154.855469 C 266.277344 154.839844 263.921875 161.851562 259.023438 166.8125 C 254.257812 171.875 246.9375 174.886719 240.097656 169.277344 C 243.820312 159.667969 249.707031 156.09375 255.363281 154.851562 C 260.90625 153.632812 266.21875 154.742188 266.203125 154.855469 " fill-opacity="1" fill-rule="nonzero"/><path fill="#debd25" d="M 253.804688 163.617188 C 253.355469 163.617188 252.917969 163.554688 252.496094 163.417969 C 251.28125 163.035156 250.363281 162.0625 249.808594 160.785156 C 252.1875 156.667969 255.992188 155.730469 258.917969 155.730469 C 260.726562 155.730469 262.199219 156.089844 262.800781 156.269531 C 261.957031 158.402344 260.414062 160.226562 258.828125 161.507812 C 257.335938 162.722656 255.507812 163.617188 253.804688 163.617188 " fill-opacity="1" fill-rule="nonzero"/><path fill="#9f6120" d="M 247.941406 172.296875 C 245.386719 172.296875 242.738281 171.425781 240.152344 169.332031 C 240.132812 169.3125 240.113281 169.296875 240.097656 169.277344 C 241.109375 166.792969 242.1875 164.742188 243.359375 163.023438 C 244.21875 164.84375 245.601562 166.378906 247.1875 166.921875 C 248.085938 167.238281 249.046875 167.382812 250.039062 167.382812 C 252.835938 167.382812 255.871094 166.203125 258.496094 164.253906 C 261.558594 161.996094 264.5625 158.738281 266.132812 154.835938 L 266.203125 154.855469 C 266.203125 154.855469 266.203125 154.855469 266.203125 154.859375 C 266.203125 155.042969 263.851562 161.921875 259.023438 166.8125 C 256.070312 169.945312 252.136719 172.296875 247.941406 172.296875 " fill-opacity="1" fill-rule="nonzero"/><path fill="#d0871f" d="M 256.839844 176.054688 L 256.839844 176.058594 C 256.914062 176.046875 253.027344 182.507812 247.027344 186.554688 C 241.140625 190.722656 233.148438 192.484375 227.628906 185.886719 L 227.632812 185.886719 C 233.558594 177.09375 240.191406 174.566406 246.082031 174.28125 C 251.851562 173.996094 256.882812 175.949219 256.839844 176.054688 " fill-opacity="1" fill-rule="nonzero"/><path fill="#e5b32d" d="M 243.460938 182.652344 C 242.683594 182.652344 241.949219 182.507812 241.308594 182.175781 C 240.1875 181.605469 239.496094 180.5 239.238281 179.164062 C 241.785156 176.351562 244.746094 175.542969 247.296875 175.542969 C 250.082031 175.542969 252.386719 176.507812 253.148438 176.878906 C 251.835938 178.824219 249.894531 180.351562 248.035156 181.34375 C 246.582031 182.121094 244.941406 182.652344 243.460938 182.652344 " fill-opacity="1" fill-rule="nonzero"/><path fill="#a85a21" d="M 236.675781 190.269531 C 233.453125 190.269531 230.300781 189.039062 227.691406 185.957031 C 227.671875 185.933594 227.648438 185.910156 227.628906 185.886719 L 227.632812 185.886719 C 229.21875 183.621094 230.761719 181.789062 232.320312 180.300781 C 232.753906 182.21875 233.777344 183.945312 235.230469 184.734375 C 236.546875 185.460938 238.109375 185.792969 239.78125 185.792969 C 242.121094 185.792969 244.671875 185.136719 247.082031 183.972656 C 250.636719 182.269531 254.347656 179.570312 256.777344 176.027344 L 256.839844 176.054688 L 256.839844 176.058594 C 256.839844 176.171875 252.96875 182.546875 247.027344 186.554688 C 243.9375 188.746094 240.265625 190.269531 236.675781 190.269531 " fill-opacity="1" fill-rule="nonzero"/><path fill="#c4951b" d="M 240.117188 198.011719 C 240.195312 198.015625 234.605469 203.558594 227.492188 206.375 C 220.476562 209.324219 211.933594 209.535156 208.296875 202.085938 C 216.734375 194.644531 223.992188 193.433594 229.917969 194.265625 C 235.722656 195.066406 240.195312 197.917969 240.117188 198.011719 " fill-opacity="1" fill-rule="nonzero"/><path fill="#debd25" d="M 226.453125 202.035156 C 225.109375 202.035156 223.878906 201.742188 223.007812 201.042969 C 222.046875 200.273438 221.667969 199.074219 221.78125 197.722656 C 224.191406 196.078125 226.527344 195.511719 228.597656 195.511719 C 232.464844 195.511719 235.414062 197.484375 236.234375 198.117188 C 234.40625 199.757812 232.058594 200.878906 229.9375 201.496094 C 228.785156 201.832031 227.578125 202.035156 226.453125 202.035156 " fill-opacity="1" fill-rule="nonzero"/><path fill="#9f6120" d="M 218.816406 208.28125 C 214.5 208.28125 210.550781 206.605469 208.347656 202.183594 C 208.328125 202.152344 208.3125 202.117188 208.296875 202.085938 C 210.53125 200.179688 212.59375 198.683594 214.566406 197.53125 C 214.464844 199.480469 215 201.351562 216.226562 202.390625 C 217.925781 203.839844 220.449219 204.519531 223.257812 204.519531 C 224.867188 204.519531 226.566406 204.296875 228.265625 203.871094 C 232.273438 202.882812 236.699219 200.960938 240.0625 197.96875 L 240.117188 198.011719 C 240.117188 198.089844 234.554688 203.582031 227.492188 206.375 C 224.707031 207.546875 221.679688 208.28125 218.816406 208.28125 " fill-opacity="1" fill-rule="nonzero"/><path fill="#884712" d="M 204.710938 70.460938 L 204.710938 185.457031 L 176.015625 185.457031 L 176.015625 123.800781 C 176.015625 114.898438 175.804688 109.550781 175.375 107.75 C 174.949219 105.949219 173.78125 104.589844 171.859375 103.664062 C 169.945312 102.742188 165.671875 102.28125 159.042969 102.28125 L 156.203125 102.28125 L 156.203125 88.875 C 170.074219 85.890625 180.605469 79.75 187.804688 70.460938 L 204.710938 70.460938 " fill-opacity="1" fill-rule="nonzero"/><path fill="#dfa11b" d="M 210.835938 70.460938 L 210.835938 185.457031 L 182.140625 185.457031 L 182.140625 123.800781 C 182.140625 114.898438 181.929688 109.550781 181.5 107.75 C 181.074219 105.949219 179.902344 104.589844 177.984375 103.664062 C 176.066406 102.742188 171.792969 102.28125 165.167969 102.28125 L 162.324219 102.28125 L 162.324219 88.875 C 176.199219 85.890625 186.730469 79.75 193.929688 70.460938 L 210.835938 70.460938 " fill-opacity="1" fill-rule="nonzero"/><path fill="#f8de19" d="M 196.636719 74.082031 C 193.421875 79.417969 188.671875 83.433594 183.199219 86.316406 C 177.554688 89.289062 171.707031 90.15625 165.480469 90.90625 C 165.140625 90.949219 165.136719 91.402344 165.480469 91.441406 C 171.621094 92.066406 178.265625 89.855469 183.683594 87.152344 C 189.335938 84.328125 194.242188 80.015625 197.515625 74.59375 C 197.851562 74.03125 196.976562 73.519531 196.636719 74.082031 " fill-opacity="1" fill-rule="nonzero"/><path fill="#f8de19" d="M 185.277344 105.285156 C 182.769531 99.449219 176.480469 98.644531 170.785156 99.222656 C 170.460938 99.257812 170.460938 99.695312 170.785156 99.730469 C 173.324219 99.980469 175.828125 99.863281 178.332031 100.460938 C 181.609375 101.246094 183.722656 103.628906 184.734375 106.75 C 186.464844 112.09375 185.722656 118.171875 185.691406 123.695312 C 185.691406 124.394531 186.777344 124.394531 186.78125 123.695312 C 186.789062 117.765625 187.6875 110.886719 185.277344 105.285156 " fill-opacity="1" fill-rule="nonzero"/><path fill="#f8de19" d="M 206.886719 129.160156 C 206.875 110.617188 208.652344 91.664062 207.082031 73.167969 C 207.054688 72.832031 206.601562 72.839844 206.585938 73.183594 C 205.640625 91.113281 205.453125 109.296875 205.398438 127.257812 C 205.375 136.300781 205.441406 145.34375 205.507812 154.382812 C 205.582031 163.921875 204.710938 173.976562 205.976562 183.425781 C 206.03125 183.835938 206.648438 184.007812 206.71875 183.519531 C 207.890625 175.277344 207.089844 166.554688 207.039062 158.238281 C 206.980469 148.546875 206.894531 138.855469 206.886719 129.160156 " fill-opacity="1" fill-rule="nonzero"/><path fill="#ffffff" d="M 238.125 67.132812 C 216.40625 68.367188 214.945312 69.828125 213.148438 91.558594 C 211.339844 69.828125 209.875 68.367188 187.960938 67.136719 C 209.875 64.765625 211.339844 63.300781 213.148438 41.367188 C 214.945312 63.300781 216.40625 64.765625 238.125 67.132812 " fill-opacity="1" fill-rule="nonzero"/><path fill="#ffffff" d="M 311.921875 163.539062 C 290.203125 164.773438 288.738281 166.238281 286.945312 187.964844 C 285.136719 166.238281 283.675781 164.773438 261.757812 163.546875 C 283.675781 161.175781 285.136719 159.710938 286.945312 137.773438 C 288.738281 159.710938 290.203125 161.175781 311.921875 163.539062 " fill-opacity="1" fill-rule="nonzero"/></svg>