<svg xmlns="http://www.w3.org/2000/svg" xmlns:xlink="http://www.w3.org/1999/xlink" width="500" zoomAndPan="magnify" viewBox="0 0 375 149.999998" height="200" preserveAspectRatio="xMidYMid meet" version="1.0"><defs><g/><clipPath id="9ef4e8bf25"><path d="M 11 49.488281 L 76.988281 49.488281 L 76.988281 92.238281 L 11 92.238281 Z M 11 49.488281 " clip-rule="nonzero"/></clipPath></defs><g clip-path="url(#9ef4e8bf25)"><path fill="#545454" d="M 32.152344 92.246094 L 11.007812 92.246094 L 15.476562 83.1875 L 32.152344 83.1875 C 33.140625 83.1875 33.949219 82.851562 34.636719 82.15625 C 35.324219 81.460938 35.65625 80.644531 35.65625 79.652344 C 35.65625 78.664062 35.324219 77.84375 34.636719 77.148438 C 33.949219 76.457031 33.136719 76.117188 32.152344 76.117188 L 24.90625 76.117188 C 21.253906 76.117188 18.09375 74.804688 15.507812 72.21875 C 12.921875 69.632812 11.609375 66.46875 11.609375 62.820312 C 11.609375 59.167969 12.925781 56.007812 15.523438 53.417969 C 18.121094 50.828125 21.285156 49.515625 24.933594 49.515625 L 47.714844 49.515625 L 47.726562 49.488281 L 76.96875 49.488281 L 73.183594 58.574219 L 25.160156 58.574219 C 24.007812 58.574219 23.015625 58.9375 22.128906 59.691406 C 21.265625 60.425781 20.792969 61.308594 20.683594 62.398438 C 20.578125 63.671875 20.941406 64.746094 21.792969 65.679688 C 22.648438 66.609375 23.671875 67.066406 24.929688 67.066406 L 32.152344 67.066406 C 35.609375 67.066406 38.605469 68.304688 41.050781 70.753906 C 43.496094 73.199219 44.734375 76.195312 44.734375 79.65625 C 44.734375 83.117188 43.496094 86.109375 41.050781 88.558594 C 38.609375 91.003906 35.613281 92.246094 32.152344 92.246094 Z M 14.183594 90.269531 L 32.152344 90.269531 C 35.113281 90.269531 37.566406 89.25 39.65625 87.160156 C 41.746094 85.066406 42.761719 82.613281 42.761719 79.652344 C 42.761719 76.695312 41.746094 74.242188 39.65625 72.148438 C 37.5625 70.054688 35.109375 69.039062 32.152344 69.039062 L 24.933594 69.039062 C 23.117188 69.039062 21.570312 68.359375 20.339844 67.011719 C 19.109375 65.667969 18.5625 64.054688 18.71875 62.222656 L 18.71875 62.210938 C 18.878906 60.605469 19.59375 59.25 20.851562 58.183594 C 22.09375 57.132812 23.542969 56.597656 25.160156 56.597656 L 71.867188 56.597656 L 74.007812 51.464844 L 48.949219 51.464844 L 48.9375 51.492188 L 24.933594 51.492188 C 21.785156 51.492188 19.164062 52.578125 16.917969 54.816406 C 14.675781 57.054688 13.585938 59.671875 13.585938 62.820312 C 13.585938 65.96875 14.671875 68.585938 16.90625 70.824219 C 19.136719 73.058594 21.753906 74.144531 24.90625 74.144531 L 32.152344 74.144531 C 33.671875 74.144531 34.976562 74.6875 36.039062 75.761719 C 37.097656 76.832031 37.632812 78.140625 37.632812 79.65625 C 37.632812 81.171875 37.097656 82.480469 36.039062 83.550781 C 34.980469 84.621094 33.671875 85.164062 32.152344 85.164062 L 16.707031 85.164062 Z M 53.542969 67.0625 C 50.121094 67.0625 47.351562 69.835938 47.351562 73.257812 L 47.351562 92.246094 L 56.433594 92.246094 L 56.433594 76.121094 L 65.878906 76.121094 L 69.648438 67.0625 Z M 53.542969 67.0625 " fill-opacity="1" fill-rule="nonzero"/></g><g fill="#545454" fill-opacity="1"><g transform="translate(85.561043, 88.37791)"><g><path d="M 13.09375 0.515625 C 10.90625 0.515625 8.972656 0.140625 7.296875 -0.609375 C 5.617188 -1.367188 4.296875 -2.453125 3.328125 -3.859375 C 2.359375 -5.265625 1.859375 -6.976562 1.828125 -9 L 7.59375 -9 C 7.644531 -7.601562 8.144531 -6.425781 9.09375 -5.46875 C 10.050781 -4.519531 11.367188 -4.046875 13.046875 -4.046875 C 14.503906 -4.046875 15.65625 -4.394531 16.5 -5.09375 C 17.351562 -5.789062 17.78125 -6.722656 17.78125 -7.890625 C 17.78125 -9.109375 17.40625 -10.054688 16.65625 -10.734375 C 15.90625 -11.421875 14.898438 -11.976562 13.640625 -12.40625 C 12.390625 -12.832031 11.054688 -13.289062 9.640625 -13.78125 C 7.335938 -14.570312 5.582031 -15.59375 4.375 -16.84375 C 3.164062 -18.09375 2.5625 -19.757812 2.5625 -21.84375 C 2.53125 -23.601562 2.945312 -25.113281 3.8125 -26.375 C 4.6875 -27.644531 5.875 -28.628906 7.375 -29.328125 C 8.882812 -30.023438 10.617188 -30.375 12.578125 -30.375 C 14.566406 -30.375 16.320312 -30.015625 17.84375 -29.296875 C 19.375 -28.585938 20.570312 -27.59375 21.4375 -26.3125 C 22.300781 -25.039062 22.765625 -23.519531 22.828125 -21.75 L 16.984375 -21.75 C 16.953125 -22.800781 16.546875 -23.734375 15.765625 -24.546875 C 14.984375 -25.359375 13.894531 -25.765625 12.5 -25.765625 C 11.300781 -25.796875 10.296875 -25.503906 9.484375 -24.890625 C 8.679688 -24.273438 8.28125 -23.382812 8.28125 -22.21875 C 8.28125 -21.226562 8.59375 -20.441406 9.21875 -19.859375 C 9.84375 -19.273438 10.691406 -18.78125 11.765625 -18.375 C 12.847656 -17.976562 14.085938 -17.554688 15.484375 -17.109375 C 16.960938 -16.597656 18.3125 -16 19.53125 -15.3125 C 20.757812 -14.632812 21.742188 -13.734375 22.484375 -12.609375 C 23.222656 -11.484375 23.59375 -10.039062 23.59375 -8.28125 C 23.59375 -6.707031 23.191406 -5.253906 22.390625 -3.921875 C 21.597656 -2.585938 20.421875 -1.515625 18.859375 -0.703125 C 17.296875 0.109375 15.375 0.515625 13.09375 0.515625 Z M 13.09375 0.515625 "/></g></g></g><g fill="#545454" fill-opacity="1"><g transform="translate(117.630498, 88.37791)"><g><path d="M 16.890625 0.515625 C 13.898438 0.515625 11.289062 -0.132812 9.0625 -1.4375 C 6.832031 -2.75 5.082031 -4.5625 3.8125 -6.875 C 2.550781 -9.195312 1.921875 -11.878906 1.921875 -14.921875 C 1.921875 -17.972656 2.550781 -20.65625 3.8125 -22.96875 C 5.082031 -25.289062 6.832031 -27.101562 9.0625 -28.40625 C 11.289062 -29.71875 13.898438 -30.375 16.890625 -30.375 C 19.847656 -30.375 22.445312 -29.71875 24.6875 -28.40625 C 26.9375 -27.101562 28.6875 -25.289062 29.9375 -22.96875 C 31.195312 -20.65625 31.828125 -17.972656 31.828125 -14.921875 C 31.828125 -11.878906 31.195312 -9.195312 29.9375 -6.875 C 28.6875 -4.5625 26.9375 -2.75 24.6875 -1.4375 C 22.445312 -0.132812 19.847656 0.515625 16.890625 0.515625 Z M 16.890625 -4.390625 C 19.734375 -4.390625 22 -5.328125 23.6875 -7.203125 C 25.382812 -9.085938 26.234375 -11.660156 26.234375 -14.921875 C 26.234375 -18.191406 25.382812 -20.765625 23.6875 -22.640625 C 22 -24.523438 19.734375 -25.46875 16.890625 -25.46875 C 14.046875 -25.46875 11.769531 -24.523438 10.0625 -22.640625 C 8.351562 -20.765625 7.5 -18.191406 7.5 -14.921875 C 7.5 -11.660156 8.351562 -9.085938 10.0625 -7.203125 C 11.769531 -5.328125 14.046875 -4.390625 16.890625 -4.390625 Z M 16.890625 -4.390625 "/></g></g></g><g fill="#545454" fill-opacity="1"><g transform="translate(157.972517, 88.37791)"><g><path d="M 2.90625 0 L 2.90625 -29.859375 L 22.1875 -29.859375 L 22.1875 -25.46875 L 8.359375 -25.46875 L 8.359375 -17.109375 L 19.53125 -17.109375 L 19.53125 -12.796875 L 8.359375 -12.796875 L 8.359375 0 Z M 2.90625 0 "/></g></g></g><g fill="#545454" fill-opacity="1"><g transform="translate(188.080437, 88.37791)"><g><path d="M 9.859375 0 L 9.859375 -25.46875 L 1.15625 -25.46875 L 1.15625 -29.859375 L 24.0625 -29.859375 L 24.0625 -25.46875 L 15.3125 -25.46875 L 15.3125 0 Z M 9.859375 0 "/></g></g></g><g fill="#545454" fill-opacity="1"><g transform="translate(219.89308, 88.37791)"><g><path d="M 9.296875 0.046875 L 1.109375 -29.859375 L 4.953125 -29.859375 L 11.390625 -4.21875 L 18.71875 -29.859375 L 22.6875 -29.859375 L 29.8125 -4.21875 L 36.34375 -29.859375 L 40.1875 -29.859375 L 31.828125 0 L 27.71875 0 L 20.609375 -24.65625 L 13.3125 0 Z M 9.296875 0.046875 "/></g></g></g><g fill="#545454" fill-opacity="1"><g transform="translate(267.740116, 88.37791)"><g><path d="M 1.28125 0 L 12.28125 -29.859375 L 16.078125 -29.859375 L 27.046875 0 L 23.25 0 L 20.515625 -7.671875 L 7.8125 -7.671875 L 5.03125 0 Z M 8.875 -10.578125 L 19.453125 -10.578125 L 14.15625 -25.34375 Z M 8.875 -10.578125 "/></g></g></g><g fill="#545454" fill-opacity="1"><g transform="translate(302.666585, 88.37791)"><g><path d="M 3.15625 0 L 3.15625 -29.859375 L 12.796875 -29.859375 C 15.128906 -29.859375 17.035156 -29.472656 18.515625 -28.703125 C 19.992188 -27.941406 21.085938 -26.890625 21.796875 -25.546875 C 22.503906 -24.210938 22.859375 -22.734375 22.859375 -21.109375 C 22.859375 -19.234375 22.351562 -17.539062 21.34375 -16.03125 C 20.332031 -14.53125 18.765625 -13.46875 16.640625 -12.84375 L 23.15625 0 L 18.9375 0 L 12.875 -12.328125 L 6.734375 -12.328125 L 6.734375 0 Z M 6.734375 -15.140625 L 12.546875 -15.140625 C 14.847656 -15.140625 16.523438 -15.691406 17.578125 -16.796875 C 18.628906 -17.910156 19.15625 -19.335938 19.15625 -21.078125 C 19.15625 -22.835938 18.632812 -24.234375 17.59375 -25.265625 C 16.550781 -26.304688 14.851562 -26.828125 12.5 -26.828125 L 6.734375 -26.828125 Z M 6.734375 -15.140625 "/></g></g></g><g fill="#545454" fill-opacity="1"><g transform="translate(334.565469, 88.37791)"><g><path d="M 3.15625 0 L 3.15625 -29.859375 L 21.625 -29.859375 L 21.625 -26.921875 L 6.734375 -26.921875 L 6.734375 -16.515625 L 20.34375 -16.515625 L 20.34375 -13.609375 L 6.734375 -13.609375 L 6.734375 -2.9375 L 21.625 -2.9375 L 21.625 0 Z M 3.15625 0 "/></g></g></g></svg>